<svg id="Layer_1" data-name="Layer 1" xmlns="http://www.w3.org/2000/svg" viewBox="0 0 200 200"><defs><style>.cls-1{fill:#bebeaf;}</style></defs><title>Gender_female</title><path class="cls-1" d="M160,80a60,60,0,1,0-67.59,59.51,1,1,0,0,1,.87,1v11.15a1,1,0,0,1-1,1H77a2,2,0,0,0-2,2v8.5a2,2,0,0,0,2,2H92.28a1,1,0,0,1,1,1V180.5a2,2,0,0,0,2,2h9.44a2,2,0,0,0,2-2V166.15a1,1,0,0,1,1-1H123a2,2,0,0,0,2-2v-8.5a2,2,0,0,0-2-2H107.72a1,1,0,0,1-1-1V140.5a1,1,0,0,1,.87-1A60,60,0,0,0,160,80ZM51,80a49,49,0,1,1,49,49A49.05,49.05,0,0,1,51,80Z"/></svg>