<svg id="Layer_1" data-name="Layer 1" xmlns="http://www.w3.org/2000/svg" viewBox="0 0 200 200"><title>Location_rural</title><path d="M179.12,78.37l-66.48-39.8a24.6,24.6,0,0,0-25.28,0L20.88,78.37a1,1,0,0,0,.51,1.86H35V163a2,2,0,0,0,2,2H66.67c-3.86-2.94-10.23-8.23-13.46-13.41-4.17-6.66-3.21-18-2.87-21a.46.46,0,0,1,.73-.31c2.52,1.75,12,8.6,16.35,15.9C71.2,152.43,70.73,161,70.23,165h4.54c-.5-4.05-1-12.57,2.81-18.83,4.4-7.3,13.83-14.15,16.35-15.9a.46.46,0,0,1,.73.31c.34,3,1.3,14.35-2.87,21-3.23,5.18-9.6,10.47-13.46,13.41H163a2,2,0,0,0,2-2V80.23h13.61A1,1,0,0,0,179.12,78.37ZM73.49,144.18a.61.61,0,0,1-.84,0c-1.83-1.84-8.61-9.3-8.61-18.95,0-8.62,6.79-17.69,8.65-20a.61.61,0,0,1,.93,0c1.85,2.31,8.64,11.38,8.64,20C82.26,134.88,75.35,142.34,73.49,144.18Z"/></svg>