<svg id="Layer_1" data-name="Layer 1" xmlns="http://www.w3.org/2000/svg" viewBox="0 0 200 200"><title>Location_urban</title><path d="M173,90H126.5a1.5,1.5,0,0,1-1.5-1.5V32a2,2,0,0,0-2-2H77a2,2,0,0,0-2,2v8H94.6a.4.4,0,0,1,.4.4v6.7a.4.4,0,0,1-.4.4H75V55H94.6a.4.4,0,0,1,.4.4v6.7a.4.4,0,0,1-.4.4H75V70H94.6a.4.4,0,0,1,.4.4v6.7a.4.4,0,0,1-.4.4H75v26a1.5,1.5,0,0,1-1.5,1.5H27a2,2,0,0,0-2,2v61a2,2,0,0,0,2,2H173a2,2,0,0,0,2-2V92A2,2,0,0,0,173,90ZM75,142.1a.4.4,0,0,1-.4.4H60.4a.4.4,0,0,1-.4-.4v-6.7a.4.4,0,0,1,.4-.4H74.6a.4.4,0,0,1,.4.4Zm0-15a.4.4,0,0,1-.4.4H60.4a.4.4,0,0,1-.4-.4v-6.7a.4.4,0,0,1,.4-.4H74.6a.4.4,0,0,1,.4.4Zm57.5,5a.4.4,0,0,1-.4.4h-6.7a.4.4,0,0,1-.4-.4v-6.7a.4.4,0,0,1,.4-.4h6.7a.4.4,0,0,1,.4.4Zm0-25a.4.4,0,0,1-.4.4h-6.7a.4.4,0,0,1-.4-.4v-6.7a.4.4,0,0,1,.4-.4h6.7a.4.4,0,0,1,.4.4Zm10,45a.4.4,0,0,1-.4.4h-6.7a.4.4,0,0,1-.4-.4v-6.7a.4.4,0,0,1,.4-.4h6.7a.4.4,0,0,1,.4.4Zm2.5-45a.4.4,0,0,1-.4.4h-6.7a.4.4,0,0,1-.4-.4v-6.7a.4.4,0,0,1,.4-.4h6.7a.4.4,0,0,1,.4.4Zm12.5,35a.4.4,0,0,1-.4.4h-6.7a.4.4,0,0,1-.4-.4v-6.7a.4.4,0,0,1,.4-.4h6.7a.4.4,0,0,1,.4.4Zm0-25a.4.4,0,0,1-.4.4h-6.7a.4.4,0,0,1-.4-.4v-6.7a.4.4,0,0,1,.4-.4h6.7a.4.4,0,0,1,.4.4Zm12.5,25a.4.4,0,0,1-.4.4h-6.7a.4.4,0,0,1-.4-.4v-6.7a.4.4,0,0,1,.4-.4h6.7a.4.4,0,0,1,.4.4Zm0-35a.4.4,0,0,1-.4.4h-6.7a.4.4,0,0,1-.4-.4v-6.7a.4.4,0,0,1,.4-.4h6.7a.4.4,0,0,1,.4.4Z"/></svg>