<svg id="Layer_1" data-name="Layer 1" xmlns="http://www.w3.org/2000/svg" viewBox="0 0 200 200"><defs><style>.cls-1{fill:#bebeaf;}</style></defs><title>Tenure-type_renter</title><path class="cls-1" d="M107.67,144.06a9.85,9.85,0,0,0,7-2.9l28-28a4.79,4.79,0,0,0,.35-6.49,4.69,4.69,0,0,0-6.81-.33L115.71,126a9.13,9.13,0,0,1-6.34,2.54l-19.24-.09a2.62,2.62,0,0,1-2.65-2.31,2.56,2.56,0,0,1,2.56-2.8l15.34.06a4.62,4.62,0,0,0,4.68-4.21,4.52,4.52,0,0,0-4.49-4.84l-21.68-.09a19.37,19.37,0,0,0-13.5,5.41l-12,11.58a7.4,7.4,0,0,0-2.26,5.29h0A7.38,7.38,0,0,0,63.47,144Z"/><polygon class="cls-1" points="100.19 76.39 89.46 80.62 84.86 91.2 89.08 101.93 99.66 106.53 110.4 102.31 115 91.73 110.77 80.99 100.19 76.39"/><path class="cls-1" d="M169.09,69.41l-68-44a2,2,0,0,0-2.18,0l-68,44A2,2,0,0,0,30,71.09V174a1,1,0,0,0,1,1H169a1,1,0,0,0,1-1V71.09A2,2,0,0,0,169.09,69.41ZM160,83.83V164a1,1,0,0,1-1,1H41a1,1,0,0,1-1-1V76.53a2,2,0,0,1,.91-1.68L99.46,37a1,1,0,0,1,1.08,0l58.55,37.87a2,2,0,0,1,.91,1.68Z"/></svg>