<svg id="Layer_1" data-name="Layer 1" xmlns="http://www.w3.org/2000/svg" viewBox="0 0 200 200"><defs><style>.cls-1{fill:#bebeaf;}</style></defs><title>Tenure-type_owner</title><path class="cls-1" d="M69.92,107.86A4.92,4.92,0,1,1,65,112.78a4.92,4.92,0,0,1,4.92-4.92m0-10a14.92,14.92,0,1,0,14.91,14.92A14.92,14.92,0,0,0,69.92,97.86Z"/><path class="cls-1" d="M79.83,107.86H140.5a5,5,0,0,1,5,5v0a5,5,0,0,1-5,5H79.83a0,0,0,0,1,0,0v-10A0,0,0,0,1,79.83,107.86Z"/><path class="cls-1" d="M133.91,95h-6.33a1,1,0,0,0-1,1v2.52a1,1,0,0,1-1,1h-6.33a1,1,0,0,1-1-1V96a1,1,0,0,0-1-1h-6.33a1,1,0,0,0-1,1v14.06h25V96a1,1,0,0,0-1-1Z"/><path class="cls-1" d="M169.09,69.41l-68-44a2,2,0,0,0-2.18,0l-68,44A2,2,0,0,0,30,71.09V174a1,1,0,0,0,1,1H169a1,1,0,0,0,1-1V71.09A2,2,0,0,0,169.09,69.41ZM160,83.83V164a1,1,0,0,1-1,1H41a1,1,0,0,1-1-1V76.53a2,2,0,0,1,.91-1.68L99.46,37a1,1,0,0,1,1.08,0l58.55,37.87a2,2,0,0,1,.91,1.68Z"/></svg>