<svg id="Layer_1" data-name="Layer 1" xmlns="http://www.w3.org/2000/svg" viewBox="0 0 567.06 268.76"><defs><style>.cls-1{fill:none;}.cls-2{fill:#fa5a14;}.cls-3{fill:#fff;}</style></defs><title>Prindex_logo_horizontal_orange-white_strapline</title><rect class="cls-1" x="0.34" y="0.13" width="566.59" height="268.49"/><path class="cls-2" d="M176.49,95.53,119.91,59.05a1.53,1.53,0,0,0-1.67,0L61.66,95.53a1.94,1.94,0,0,0-.88,1.63v36.26A1.54,1.54,0,0,0,62.31,135h13.6a1.54,1.54,0,0,1,1.53,1.54V164A1.53,1.53,0,0,0,79,165.51H92.57A1.53,1.53,0,0,0,94.11,164V125.73a1.54,1.54,0,0,1,1.54-1.54h13.59a1.54,1.54,0,0,1,1.54,1.54v27.55a1.53,1.53,0,0,0,1.53,1.54H125.9a1.54,1.54,0,0,1,1.54,1.54v27.78a1.23,1.23,0,0,0,1.23,1.23h14.21a1.23,1.23,0,0,0,1.23-1.23V156.42a1.53,1.53,0,0,1,1.53-1.54h13.6a1.53,1.53,0,0,0,1.53-1.54V110a1.54,1.54,0,0,1,1.54-1.54h13.52a1.54,1.54,0,0,0,1.54-1.53V97.16A1.94,1.94,0,0,0,176.49,95.53Z"/><path class="cls-3" d="M204,154.25a2,2,0,0,1-.63-1.46V98.68a2.18,2.18,0,0,1,.59-1.54,2,2,0,0,1,1.5-.62H229q10.85,0,17,4.91t6.17,14.43q0,9.49-6.17,14.21t-17,4.71h-9.5v18a2.09,2.09,0,0,1-.59,1.46,2,2,0,0,1-1.5.62h-12A2,2,0,0,1,204,154.25Zm24.63-31.39a7.68,7.68,0,0,0,5.38-1.79,6.82,6.82,0,0,0,2-5.3,7.61,7.61,0,0,0-1.79-5.25c-1.2-1.33-3-2-5.55-2h-9.33v14.34Z"/><path class="cls-3" d="M256.66,154.25a2,2,0,0,1-.63-1.46v-39.1a2.2,2.2,0,0,1,.58-1.54,2,2,0,0,1,1.51-.63h10.17a2.09,2.09,0,0,1,1.54.63,2.07,2.07,0,0,1,.62,1.54v3.17a16,16,0,0,1,5.46-4,17.11,17.11,0,0,1,7-1.38h3.75a2,2,0,0,1,2.08,2.09v9.08a2,2,0,0,1-.58,1.46,2,2,0,0,1-1.5.63h-8.42a6.84,6.84,0,0,0-5.13,1.83,7.07,7.07,0,0,0-1.79,5.17v21a2,2,0,0,1-.63,1.5,2.15,2.15,0,0,1-1.54.58h-11A2,2,0,0,1,256.66,154.25Z"/><path class="cls-3" d="M293.71,104.89a2.15,2.15,0,0,1-.58-1.54V95.6a2.1,2.1,0,0,1,.62-1.54,2,2,0,0,1,1.46-.63h10.42a2.13,2.13,0,0,1,2.17,2.17v7.75a2.13,2.13,0,0,1-2.17,2.17H295.21A2,2,0,0,1,293.71,104.89Zm0,49.36a2,2,0,0,1-.62-1.46V113.61a2,2,0,0,1,.62-1.5,2.09,2.09,0,0,1,1.46-.59h10.42a2.19,2.19,0,0,1,1.55.59,2,2,0,0,1,.62,1.5v39.18a2,2,0,0,1-.62,1.5,2.18,2.18,0,0,1-1.55.58H295.21A2,2,0,0,1,293.75,154.25Z"/><path class="cls-3" d="M315.18,154.25a2,2,0,0,1-.63-1.46V113.61a2,2,0,0,1,.63-1.5,2.07,2.07,0,0,1,1.46-.59h10.25a2,2,0,0,1,2.09,2.09v3.16a16.34,16.34,0,0,1,5.79-4.41,18.75,18.75,0,0,1,8.13-1.67,16.39,16.39,0,0,1,8.46,2.17,14.92,14.92,0,0,1,5.84,6.42,22.79,22.79,0,0,1,2.12,10.25v23.26a2.08,2.08,0,0,1-.58,1.46,2,2,0,0,1-1.5.62H346.15a2.15,2.15,0,0,1-1.54-.58,2,2,0,0,1-.63-1.5V130a8.36,8.36,0,0,0-1.79-5.75,6.62,6.62,0,0,0-5.21-2,6.86,6.86,0,0,0-5.25,2,8,8,0,0,0-1.92,5.71v22.76a2.13,2.13,0,0,1-.58,1.46,2,2,0,0,1-1.5.62H316.64A2,2,0,0,1,315.18,154.25Z"/><path class="cls-3" d="M369.62,150.62q-4.64-5.09-5-14.5l-.09-2.92.09-3q.33-9.09,5-14.3t12.67-5.21q7.5,0,12.09,4.83V97.77a2,2,0,0,1,.62-1.5,2.09,2.09,0,0,1,1.46-.59h10.76a2.18,2.18,0,0,1,1.54.59,2,2,0,0,1,.62,1.5v55a2,2,0,0,1-.62,1.5,2.17,2.17,0,0,1-1.54.58h-9.92a2.14,2.14,0,0,1-2.09-2.08V150.2q-4.5,5.51-12.92,5.51Q374.25,155.71,369.62,150.62Zm22.88-8.79a10.08,10.08,0,0,0,1.92-5.8c.11-1.55.17-2.61.17-3.17s-.06-1.63-.17-3.08a8.82,8.82,0,0,0-2-5.38,6.56,6.56,0,0,0-5.29-2.12c-2.5,0-4.3.73-5.38,2.21a11.47,11.47,0,0,0-1.88,6.12l-.08,2.59.08,2.58a11.5,11.5,0,0,0,1.88,6.13c1.08,1.47,2.88,2.21,5.38,2.21A6.29,6.29,0,0,0,392.5,141.83Z"/><path class="cls-3" d="M421.35,150.25q-5.85-5.46-6-15.89v-2.58q.33-9.91,6.17-15.51t15.76-5.58a23.9,23.9,0,0,1,12.13,2.87,18.29,18.29,0,0,1,7.42,7.92A25.87,25.87,0,0,1,459.28,133V135a2.15,2.15,0,0,1-2.17,2.17H430.68v.5a10.47,10.47,0,0,0,1.75,6,5.53,5.53,0,0,0,4.76,2.3,5.72,5.72,0,0,0,3.2-.8,10.81,10.81,0,0,0,2.3-2,4.4,4.4,0,0,1,1.21-1,3.71,3.71,0,0,1,1.46-.21h10.92a1.91,1.91,0,0,1,1.29.46,1.42,1.42,0,0,1,.54,1.12q0,2.17-2.46,5.09a19.47,19.47,0,0,1-7.17,5,27.32,27.32,0,0,1-11.13,2.09Q427.18,155.71,421.35,150.25Zm22.59-21.55v-.17a9.81,9.81,0,0,0-1.75-6.21,5.94,5.94,0,0,0-4.92-2.21,5.82,5.82,0,0,0-4.88,2.21,9.93,9.93,0,0,0-1.71,6.21v.17Z"/><path class="cls-3" d="M460,154.33a1.79,1.79,0,0,1-.59-1.37,1.92,1.92,0,0,1,.5-1.26l13.84-19.09-12.59-17.92a2.14,2.14,0,0,1-.5-1.25,1.81,1.81,0,0,1,.59-1.38,1.88,1.88,0,0,1,1.33-.54h10.76a2.31,2.31,0,0,1,1.5.42,7.11,7.11,0,0,1,1,1.08l7.33,10.26L490.62,113a5,5,0,0,0,.42-.5,2.82,2.82,0,0,1,.87-.71,2.6,2.6,0,0,1,1.21-.29h10.26a1.9,1.9,0,0,1,1.33.54,1.73,1.73,0,0,1,.58,1.3,2.17,2.17,0,0,1-.5,1.33L492,132.61,506,151.7a2.12,2.12,0,0,1,.42,1.26,1.85,1.85,0,0,1-1.92,1.91H493.29a2.72,2.72,0,0,1-2.33-1.33l-8.09-11-8.17,11a4.29,4.29,0,0,1-1,1,2.57,2.57,0,0,1-1.42.33H461.36A1.88,1.88,0,0,1,460,154.33Z"/><path class="cls-3" d="M203.79,185.26a.44.44,0,0,1-.13-.31V173.2a.43.43,0,0,1,.44-.46h1.46a.6.6,0,0,1,.54.35l3.49,6.46,3.48-6.46a.63.63,0,0,1,.55-.35h1.44a.49.49,0,0,1,.33.13.45.45,0,0,1,.12.33V185a.44.44,0,0,1-.12.32.48.48,0,0,1-.33.12h-1.55a.44.44,0,0,1-.44-.44v-7.76L210.56,182a.63.63,0,0,1-.59.4h-.76a.71.71,0,0,1-.62-.4l-2.51-4.76V185a.47.47,0,0,1-.11.31.44.44,0,0,1-.32.13H204.1A.44.44,0,0,1,203.79,185.26Z"/><path class="cls-3" d="M219,184.41a4.63,4.63,0,0,1-1.25-3.29l0-.45a5.1,5.1,0,0,1,1.18-3.56,4.83,4.83,0,0,1,6.59,0,5,5,0,0,1,1.17,3.47V181a.42.42,0,0,1-.13.31.44.44,0,0,1-.32.12h-6v.15a2.87,2.87,0,0,0,.55,1.67,1.71,1.71,0,0,0,1.42.66,2,2,0,0,0,1.68-.83,1.13,1.13,0,0,1,.25-.25.76.76,0,0,1,.31,0h1.59a.45.45,0,0,1,.28.09.29.29,0,0,1,.12.25,1.7,1.7,0,0,1-.52,1,4.24,4.24,0,0,1-1.47,1,5.33,5.33,0,0,1-2.22.44A4.4,4.4,0,0,1,219,184.41Zm5.18-4.55v0a2.53,2.53,0,0,0-.54-1.7,1.77,1.77,0,0,0-1.45-.64,1.74,1.74,0,0,0-1.44.64,2.58,2.58,0,0,0-.53,1.7v0Z"/><path class="cls-3" d="M229.73,185.2a3.09,3.09,0,0,1-1.21-1,2.39,2.39,0,0,1-.44-1.39,2.36,2.36,0,0,1,1-2,6,6,0,0,1,2.73-1l2.48-.36v-.38a1.63,1.63,0,0,0-.4-1.18,1.77,1.77,0,0,0-1.27-.39,1.88,1.88,0,0,0-1,.21,3.35,3.35,0,0,0-.59.44l-.3.3a.27.27,0,0,1-.27.22h-1.41a.41.41,0,0,1-.28-.11.36.36,0,0,1-.11-.29,1.84,1.84,0,0,1,.44-1,3.4,3.4,0,0,1,1.31-1,5.07,5.07,0,0,1,2.18-.43,4.31,4.31,0,0,1,3.11,1,3.37,3.37,0,0,1,1,2.51V185a.47.47,0,0,1-.11.31.44.44,0,0,1-.32.13h-1.5a.46.46,0,0,1-.31-.13.43.43,0,0,1-.12-.31v-.7a3.1,3.1,0,0,1-1.12.95,4,4,0,0,1-1.81.37A4,4,0,0,1,229.73,185.2Zm3.93-2a2.59,2.59,0,0,0,.63-1.88v-.36l-1.8.29c-1.39.22-2.08.68-2.08,1.39a1,1,0,0,0,.48.9,2,2,0,0,0,1.15.31A2.13,2.13,0,0,0,233.66,183.18Z"/><path class="cls-3" d="M240.38,185.15a3.61,3.61,0,0,1-1.36-1,1.6,1.6,0,0,1-.45-.94.37.37,0,0,1,.12-.29.41.41,0,0,1,.28-.11h1.48a.31.31,0,0,1,.25.14l.41.35a2.35,2.35,0,0,0,.72.42,2.57,2.57,0,0,0,.9.15,2.16,2.16,0,0,0,1.17-.28.95.95,0,0,0,.25-1.39,2,2,0,0,0-.75-.41,13.56,13.56,0,0,0-1.59-.43,4.71,4.71,0,0,1-2.27-1,2.26,2.26,0,0,1-.73-1.77,2.38,2.38,0,0,1,.43-1.36,3.11,3.11,0,0,1,1.29-1.05,4.81,4.81,0,0,1,2.05-.41,5.25,5.25,0,0,1,2.12.39,3.69,3.69,0,0,1,1.34.93,1.56,1.56,0,0,1,.46,1,.38.38,0,0,1-.12.28.36.36,0,0,1-.27.12h-1.36a.37.37,0,0,1-.31-.15c-.08-.06-.22-.17-.4-.33a2.55,2.55,0,0,0-.63-.39,2,2,0,0,0-.83-.14,1.64,1.64,0,0,0-1,.28.94.94,0,0,0-.36.76.85.85,0,0,0,.17.54,1.62,1.62,0,0,0,.7.41,10.1,10.1,0,0,0,1.57.39c2.17.42,3.25,1.37,3.25,2.83a2.44,2.44,0,0,1-1.11,2.08,5.24,5.24,0,0,1-3.1.8A5.51,5.51,0,0,1,240.38,185.15Z"/><path class="cls-3" d="M249.66,184.48a4.32,4.32,0,0,1-.95-3v-5.07a.44.44,0,0,1,.12-.32.45.45,0,0,1,.31-.12h1.62a.44.44,0,0,1,.31.13.42.42,0,0,1,.13.31v5c0,1.49.64,2.23,1.93,2.23a1.92,1.92,0,0,0,1.49-.6,2.3,2.3,0,0,0,.55-1.63v-5a.43.43,0,0,1,.43-.44h1.61a.41.41,0,0,1,.44.44V185a.43.43,0,0,1-.12.31.44.44,0,0,1-.32.13h-1.5a.42.42,0,0,1-.3-.13.4.4,0,0,1-.13-.31v-.74a3.46,3.46,0,0,1-3,1.36A3.3,3.3,0,0,1,249.66,184.48Z"/><path class="cls-3" d="M260.23,185.26a.4.4,0,0,1-.13-.31v-8.5a.43.43,0,0,1,.13-.33.42.42,0,0,1,.3-.13H262a.44.44,0,0,1,.32.13.47.47,0,0,1,.13.33v.74a3.06,3.06,0,0,1,2.6-1.2h.76a.41.41,0,0,1,.31.12.44.44,0,0,1,.12.32v1.32a.41.41,0,0,1-.12.3.39.39,0,0,1-.31.13H264.4a1.68,1.68,0,0,0-1.82,1.82V185a.44.44,0,0,1-.13.31.46.46,0,0,1-.31.13h-1.61A.42.42,0,0,1,260.23,185.26Z"/><path class="cls-3" d="M267.79,174.33a.41.41,0,0,1-.12-.3v-1.32a.48.48,0,0,1,.12-.33.45.45,0,0,1,.31-.12h1.66a.46.46,0,0,1,.33.12.48.48,0,0,1,.12.33V174a.38.38,0,0,1-.13.3.44.44,0,0,1-.32.13H268.1A.42.42,0,0,1,267.79,174.33Zm.08,10.93a.4.4,0,0,1-.13-.31v-8.52a.43.43,0,0,1,.43-.44h1.54a.46.46,0,0,1,.31.13.45.45,0,0,1,.12.31V185a.43.43,0,0,1-.12.31.46.46,0,0,1-.31.13h-1.54A.42.42,0,0,1,267.87,185.26Z"/><path class="cls-3" d="M272.73,185.26a.4.4,0,0,1-.13-.31v-8.52A.43.43,0,0,1,273,176h1.5a.44.44,0,0,1,.32.12.43.43,0,0,1,.11.32v.74a3.7,3.7,0,0,1,3-1.36,3.39,3.39,0,0,1,2.64,1.09,4.28,4.28,0,0,1,1,3V185a.47.47,0,0,1-.11.31.44.44,0,0,1-.32.13h-1.63a.42.42,0,0,1-.3-.13.4.4,0,0,1-.13-.31v-5a2.42,2.42,0,0,0-.51-1.64,1.88,1.88,0,0,0-1.48-.59,1.94,1.94,0,0,0-1.48.6,2.3,2.3,0,0,0-.56,1.63v5a.47.47,0,0,1-.11.31.44.44,0,0,1-.32.13H273A.42.42,0,0,1,272.73,185.26Z"/><path class="cls-3" d="M285.6,188.83a3.69,3.69,0,0,1-1.41-1.22,2.45,2.45,0,0,1-.41-1.18.37.37,0,0,1,.12-.29.45.45,0,0,1,.31-.12h1.61a.44.44,0,0,1,.28.08.54.54,0,0,1,.19.3,2.11,2.11,0,0,0,.59.8,1.92,1.92,0,0,0,1.23.34,1.81,1.81,0,0,0,2.1-2.15v-1.23a3.42,3.42,0,0,1-2.77,1.15,3.48,3.48,0,0,1-2.82-1.13,5,5,0,0,1-1-3.11l0-.49,0-.49a5.07,5.07,0,0,1,1-3.1,3.41,3.41,0,0,1,2.81-1.18,3.59,3.59,0,0,1,1.68.37,3.36,3.36,0,0,1,1.2,1v-.7a.43.43,0,0,1,.13-.33.48.48,0,0,1,.32-.13h1.48a.42.42,0,0,1,.3.13.43.43,0,0,1,.13.33l0,8.7a4.16,4.16,0,0,1-1.12,3.11,4.66,4.66,0,0,1-3.38,1.1A5.56,5.56,0,0,1,285.6,188.83Zm4-6.08a2.85,2.85,0,0,0,.56-1.59c0-.1,0-.29,0-.58s0-.48,0-.58a2.9,2.9,0,0,0-.56-1.59,1.83,1.83,0,0,0-1.52-.65c-1.3,0-2,.8-2.06,2.39l0,.43c0,1.88.7,2.82,2.08,2.82A1.83,1.83,0,0,0,289.65,182.75Z"/><path class="cls-3" d="M301,188.83a3.69,3.69,0,0,1-1.41-1.22,2.38,2.38,0,0,1-.42-1.18.38.38,0,0,1,.13-.29.45.45,0,0,1,.31-.12h1.61a.46.46,0,0,1,.28.08.6.6,0,0,1,.19.3,2.11,2.11,0,0,0,.59.8,1.92,1.92,0,0,0,1.23.34,1.8,1.8,0,0,0,2.09-2.15v-1.23a3.41,3.41,0,0,1-2.76,1.15,3.51,3.51,0,0,1-2.83-1.13,5,5,0,0,1-1-3.11v-1a5.13,5.13,0,0,1,1-3.1,3.44,3.44,0,0,1,2.82-1.18,3.59,3.59,0,0,1,1.68.37,3.33,3.33,0,0,1,1.19,1v-.7a.44.44,0,0,1,.14-.33.46.46,0,0,1,.31-.13h1.49a.42.42,0,0,1,.3.13.43.43,0,0,1,.13.33l0,8.7a4.2,4.2,0,0,1-1.12,3.11,4.68,4.68,0,0,1-3.38,1.1A5.56,5.56,0,0,1,301,188.83Zm4-6.08a2.7,2.7,0,0,0,.56-1.59,8.42,8.42,0,0,0,0-1.16,2.75,2.75,0,0,0-.56-1.59,1.79,1.79,0,0,0-1.51-.65c-1.3,0-2,.8-2.06,2.39l0,.43c0,1.88.69,2.82,2.08,2.82A1.79,1.79,0,0,0,305,182.75Z"/><path class="cls-3" d="M310.69,185.26a.4.4,0,0,1-.13-.31V173a.39.39,0,0,1,.13-.32.41.41,0,0,1,.3-.12h1.52a.44.44,0,0,1,.32.12.42.42,0,0,1,.11.32V185a.42.42,0,0,1-.11.31.44.44,0,0,1-.32.13H311A.42.42,0,0,1,310.69,185.26Z"/><path class="cls-3" d="M316.3,184.48a4.19,4.19,0,0,1-1.24-3l0-.79,0-.79a4.17,4.17,0,0,1,1.26-3,5.38,5.38,0,0,1,6.52,0,4.18,4.18,0,0,1,1.27,3c0,.14,0,.4,0,.79s0,.65,0,.79a4.19,4.19,0,0,1-1.25,3,5.48,5.48,0,0,1-6.56,0Zm4.76-1.33a2.7,2.7,0,0,0,.55-1.76,12.26,12.26,0,0,0,0-1.4,2.72,2.72,0,0,0-.56-1.76,1.8,1.8,0,0,0-1.46-.61,1.83,1.83,0,0,0-1.48.61,2.72,2.72,0,0,0-.56,1.76l0,.7,0,.7a2.7,2.7,0,0,0,.56,1.76,1.88,1.88,0,0,0,1.48.59A1.85,1.85,0,0,0,321.06,183.15Z"/><path class="cls-3" d="M328.55,184.28V185a.4.4,0,0,1-.13.31.44.44,0,0,1-.32.13h-1.45a.42.42,0,0,1-.3-.13.4.4,0,0,1-.13-.31V173a.39.39,0,0,1,.13-.32.41.41,0,0,1,.3-.12h1.57a.41.41,0,0,1,.44.44v4a3.41,3.41,0,0,1,2.76-1.2,3.45,3.45,0,0,1,2.81,1.19,5,5,0,0,1,1,3.09c0,.15,0,.35,0,.6s0,.44,0,.6a5,5,0,0,1-1,3.11,3.88,3.88,0,0,1-5.67-.12Zm4.24-3.05c0-.12,0-.3,0-.54s0-.42,0-.54c-.08-1.59-.77-2.39-2.06-2.39a1.86,1.86,0,0,0-1.51.64,2.45,2.45,0,0,0-.56,1.53,6.47,6.47,0,0,0,0,.71,6,6,0,0,0,0,.68,2.77,2.77,0,0,0,.54,1.63,1.82,1.82,0,0,0,1.53.67C332,183.62,332.71,182.82,332.79,181.23Z"/><path class="cls-3" d="M338.4,185.2a3.09,3.09,0,0,1-1.21-1,2.39,2.39,0,0,1-.44-1.39,2.36,2.36,0,0,1,1-2,5.89,5.89,0,0,1,2.73-1l2.47-.36v-.38a1.63,1.63,0,0,0-.39-1.18,1.77,1.77,0,0,0-1.27-.39,1.9,1.9,0,0,0-1,.21,3.24,3.24,0,0,0-.58.44l-.3.3a.27.27,0,0,1-.27.22h-1.41a.41.41,0,0,1-.28-.11.37.37,0,0,1-.12-.29,1.92,1.92,0,0,1,.44-1,3.47,3.47,0,0,1,1.31-1,5.09,5.09,0,0,1,2.19-.43,4.31,4.31,0,0,1,3.11,1,3.37,3.37,0,0,1,1,2.51V185a.43.43,0,0,1-.12.31.42.42,0,0,1-.31.13h-1.5a.46.46,0,0,1-.31-.13A.44.44,0,0,1,343,185v-.7a2.94,2.94,0,0,1-1.12.95,4,4,0,0,1-1.8.37A4,4,0,0,1,338.4,185.2Zm3.93-2a2.59,2.59,0,0,0,.63-1.88v-.36l-1.81.29c-1.38.22-2.07.68-2.07,1.39a1,1,0,0,0,.48.9,2,2,0,0,0,1.14.31A2.15,2.15,0,0,0,342.33,183.18Z"/><path class="cls-3" d="M347.91,185.26a.4.4,0,0,1-.13-.31V173a.39.39,0,0,1,.13-.32.43.43,0,0,1,.31-.12h1.51a.41.41,0,0,1,.44.44V185a.43.43,0,0,1-.44.44h-1.51A.44.44,0,0,1,347.91,185.26Z"/><path class="cls-3" d="M357,188.7a.42.42,0,0,1-.12-.32V176.43a.44.44,0,0,1,.12-.32.45.45,0,0,1,.31-.12h1.45a.44.44,0,0,1,.32.13.42.42,0,0,1,.13.31v.72a3.3,3.3,0,0,1,2.87-1.34,3.48,3.48,0,0,1,2.8,1.15,4.91,4.91,0,0,1,1,3.08c0,.14,0,.36,0,.65s0,.51,0,.65a4.88,4.88,0,0,1-1,3.06,3.47,3.47,0,0,1-2.81,1.17,3.22,3.22,0,0,1-2.76-1.29v4.1a.42.42,0,0,1-.12.32.44.44,0,0,1-.32.12h-1.57A.45.45,0,0,1,357,188.7Zm6.45-7.47c0-.12,0-.3,0-.54s0-.42,0-.54c-.08-1.59-.77-2.39-2.06-2.39a1.81,1.81,0,0,0-1.53.67,2.77,2.77,0,0,0-.54,1.63,6,6,0,0,0,0,.68,6.68,6.68,0,0,0,0,.71,2.45,2.45,0,0,0,.56,1.53,1.83,1.83,0,0,0,1.51.64C362.65,183.62,363.34,182.82,363.42,181.23Z"/><path class="cls-3" d="M368.85,184.41a4.63,4.63,0,0,1-1.26-3.29v-.45a5.1,5.1,0,0,1,1.18-3.56,4.83,4.83,0,0,1,6.59,0,5,5,0,0,1,1.17,3.47V181a.46.46,0,0,1-.13.31.46.46,0,0,1-.33.12h-6v.15a2.81,2.81,0,0,0,.55,1.67,1.69,1.69,0,0,0,1.42.66,2.06,2.06,0,0,0,1.68-.83,1,1,0,0,1,.25-.25.76.76,0,0,1,.31,0h1.59a.47.47,0,0,1,.28.09.31.31,0,0,1,.11.25,1.68,1.68,0,0,1-.51,1,4.44,4.44,0,0,1-1.47,1,5.34,5.34,0,0,1-2.23.44A4.4,4.4,0,0,1,368.85,184.41Zm5.17-4.55v0a2.53,2.53,0,0,0-.53-1.7,2,2,0,0,0-2.9,0,2.58,2.58,0,0,0-.52,1.7v0Z"/><path class="cls-3" d="M378.63,185.26a.4.4,0,0,1-.13-.31v-8.5a.43.43,0,0,1,.13-.33.42.42,0,0,1,.31-.13h1.48a.44.44,0,0,1,.32.13.43.43,0,0,1,.13.33v.74a3.06,3.06,0,0,1,2.6-1.2h.76a.41.41,0,0,1,.31.12.44.44,0,0,1,.12.32v1.32a.41.41,0,0,1-.12.3.39.39,0,0,1-.31.13H382.8A1.68,1.68,0,0,0,381,180V185a.44.44,0,0,1-.44.44h-1.6A.42.42,0,0,1,378.63,185.26Z"/><path class="cls-3" d="M387,184.46a4.18,4.18,0,0,1-1.26-3.05l0-.72,0-.72a4.18,4.18,0,0,1,1.26-3.05,4.41,4.41,0,0,1,3.16-1.11,5.22,5.22,0,0,1,2.42.51,3.78,3.78,0,0,1,1.46,1.24,2.76,2.76,0,0,1,.51,1.4.31.31,0,0,1-.11.3.44.44,0,0,1-.32.13h-1.61a.46.46,0,0,1-.29-.08.87.87,0,0,1-.18-.3,2.08,2.08,0,0,0-.71-1,1.91,1.91,0,0,0-1.13-.31,1.8,1.8,0,0,0-1.43.58,2.7,2.7,0,0,0-.56,1.77v1.26c.08,1.57.74,2.35,2,2.35a2,2,0,0,0,1.14-.3,2.06,2.06,0,0,0,.7-1,.85.85,0,0,1,.17-.29.45.45,0,0,1,.3-.09h1.61a.44.44,0,0,1,.32.13.31.31,0,0,1,.11.3,2.84,2.84,0,0,1-.5,1.37,3.85,3.85,0,0,1-1.45,1.25,5.09,5.09,0,0,1-2.44.53A4.41,4.41,0,0,1,387,184.46Z"/><path class="cls-3" d="M397.4,184.41a4.58,4.58,0,0,1-1.25-3.29l0-.45a5.1,5.1,0,0,1,1.18-3.56,4.83,4.83,0,0,1,6.59,0,5,5,0,0,1,1.17,3.47V181a.42.42,0,0,1-.13.31.44.44,0,0,1-.32.12h-6v.15a2.81,2.81,0,0,0,.55,1.67,1.7,1.7,0,0,0,1.42.66,2,2,0,0,0,1.68-.83,1.13,1.13,0,0,1,.25-.25.76.76,0,0,1,.31,0h1.59a.45.45,0,0,1,.28.09.29.29,0,0,1,.12.25,1.7,1.7,0,0,1-.52,1,4.24,4.24,0,0,1-1.47,1,5.33,5.33,0,0,1-2.22.44A4.4,4.4,0,0,1,397.4,184.41Zm5.18-4.55v0a2.53,2.53,0,0,0-.54-1.7,2,2,0,0,0-2.9,0,2.58,2.58,0,0,0-.52,1.7v0Z"/><path class="cls-3" d="M407.2,188.7a.39.39,0,0,1-.13-.32V176.43a.41.41,0,0,1,.13-.32.43.43,0,0,1,.31-.12H409a.49.49,0,0,1,.33.13.45.45,0,0,1,.12.31v.72a3.31,3.31,0,0,1,2.87-1.34,3.48,3.48,0,0,1,2.8,1.15,4.91,4.91,0,0,1,1.05,3.08c0,.14,0,.36,0,.65s0,.51,0,.65a4.82,4.82,0,0,1-1,3.06,3.46,3.46,0,0,1-2.81,1.17,3.23,3.23,0,0,1-2.76-1.29v4.1a.42.42,0,0,1-.12.32.41.41,0,0,1-.31.12h-1.57A.43.43,0,0,1,407.2,188.7Zm6.45-7.47c0-.12,0-.3,0-.54s0-.42,0-.54c-.09-1.59-.77-2.39-2.06-2.39a1.83,1.83,0,0,0-1.54.67,2.84,2.84,0,0,0-.54,1.63c0,.14,0,.37,0,.68s0,.55,0,.71a2.45,2.45,0,0,0,.56,1.53,1.85,1.85,0,0,0,1.52.64C412.88,183.62,413.56,182.82,413.65,181.23Z"/><path class="cls-3" d="M420,184.53a3.49,3.49,0,0,1-.83-2.52v-4.08h-1.42a.44.44,0,0,1-.44-.44v-1.06a.42.42,0,0,1,.13-.31.44.44,0,0,1,.31-.13h1.42v-3a.39.39,0,0,1,.13-.32.43.43,0,0,1,.31-.12h1.49a.41.41,0,0,1,.44.44v3h2.26a.44.44,0,0,1,.43.44v1.06a.4.4,0,0,1-.13.31.38.38,0,0,1-.3.13h-2.26v3.88a2.06,2.06,0,0,0,.27,1.17,1,1,0,0,0,.88.4H424a.4.4,0,0,1,.31.12.41.41,0,0,1,.12.31V185a.43.43,0,0,1-.12.31.41.41,0,0,1-.31.13h-1.48A3.32,3.32,0,0,1,420,184.53Z"/><path class="cls-3" d="M426.13,174.33a.38.38,0,0,1-.13-.3v-1.32a.44.44,0,0,1,.13-.33.41.41,0,0,1,.3-.12h1.66a.45.45,0,0,1,.33.12.49.49,0,0,1,.13.33V174a.39.39,0,0,1-.14.3.44.44,0,0,1-.32.13h-1.66A.38.38,0,0,1,426.13,174.33Zm.07,10.93a.4.4,0,0,1-.13-.31v-8.52a.41.41,0,0,1,.13-.32.41.41,0,0,1,.31-.12H428a.46.46,0,0,1,.31.13.45.45,0,0,1,.12.31V185a.43.43,0,0,1-.12.31.46.46,0,0,1-.31.13h-1.53A.42.42,0,0,1,426.2,185.26Z"/><path class="cls-3" d="M431.82,184.48a4.15,4.15,0,0,1-1.25-3l0-.79,0-.79a4.17,4.17,0,0,1,1.26-3,4.62,4.62,0,0,1,3.27-1.1,4.57,4.57,0,0,1,3.25,1.1,4.14,4.14,0,0,1,1.27,3c0,.14,0,.4,0,.79s0,.65,0,.79a4.19,4.19,0,0,1-1.25,3,5.47,5.47,0,0,1-6.55,0Zm4.75-1.33a2.7,2.7,0,0,0,.55-1.76,12.26,12.26,0,0,0,0-1.4,2.72,2.72,0,0,0-.56-1.76,1.79,1.79,0,0,0-1.46-.61,1.83,1.83,0,0,0-1.48.61,2.72,2.72,0,0,0-.56,1.76l0,.7,0,.7a2.7,2.7,0,0,0,.56,1.76,1.88,1.88,0,0,0,1.48.59A1.85,1.85,0,0,0,436.57,183.15Z"/><path class="cls-3" d="M441.84,185.26a.4.4,0,0,1-.13-.31v-8.52a.41.41,0,0,1,.13-.32.41.41,0,0,1,.31-.12h1.49a.42.42,0,0,1,.32.12.44.44,0,0,1,.12.32v.74a3.68,3.68,0,0,1,3-1.36,3.39,3.39,0,0,1,2.64,1.09,4.28,4.28,0,0,1,1,3V185a.43.43,0,0,1-.12.31.44.44,0,0,1-.32.13h-1.62a.44.44,0,0,1-.44-.44v-5a2.42,2.42,0,0,0-.51-1.64,1.86,1.86,0,0,0-1.47-.59,1.91,1.91,0,0,0-1.48.6,2.26,2.26,0,0,0-.56,1.63v5a.43.43,0,0,1-.12.31.44.44,0,0,1-.32.13h-1.6A.42.42,0,0,1,441.84,185.26Z"/><path class="cls-3" d="M454.35,185.15a3.61,3.61,0,0,1-1.36-1,1.57,1.57,0,0,1-.44-.94.4.4,0,0,1,.11-.29.43.43,0,0,1,.28-.11h1.49a.33.33,0,0,1,.25.14l.4.35a2.53,2.53,0,0,0,.73.42,2.56,2.56,0,0,0,.89.15,2.22,2.22,0,0,0,1.18-.28.88.88,0,0,0,.45-.8.84.84,0,0,0-.21-.59,2,2,0,0,0-.74-.41,14.44,14.44,0,0,0-1.6-.43,4.75,4.75,0,0,1-2.27-1,2.29,2.29,0,0,1-.73-1.77,2.39,2.39,0,0,1,.44-1.36,3,3,0,0,1,1.29-1.05,4.74,4.74,0,0,1,2.05-.41,5.2,5.2,0,0,1,2.11.39,3.74,3.74,0,0,1,1.35.93,1.61,1.61,0,0,1,.46,1,.41.41,0,0,1-.4.4h-1.36a.34.34,0,0,1-.3-.15c-.09-.06-.22-.17-.41-.33a2.49,2.49,0,0,0-.62-.39,2.09,2.09,0,0,0-.83-.14,1.62,1.62,0,0,0-1,.28.94.94,0,0,0-.36.76.8.8,0,0,0,.17.54,1.51,1.51,0,0,0,.69.41,10.41,10.41,0,0,0,1.57.39c2.17.42,3.26,1.37,3.26,2.83a2.45,2.45,0,0,1-1.12,2.08,5.23,5.23,0,0,1-3.09.8A5.56,5.56,0,0,1,454.35,185.15Z"/><path class="cls-3" d="M204.33,206.84a4.18,4.18,0,0,1-1.24-3l0-.8,0-.79a4.17,4.17,0,0,1,1.26-3,5.42,5.42,0,0,1,6.52,0,4.17,4.17,0,0,1,1.26,3,7.58,7.58,0,0,1,0,.79,7.8,7.8,0,0,1,0,.8,4.18,4.18,0,0,1-1.24,3,5.48,5.48,0,0,1-6.56,0Zm4.76-1.33a2.74,2.74,0,0,0,.55-1.75c0-.12,0-.36,0-.71s0-.58,0-.7a2.72,2.72,0,0,0-.56-1.76,1.8,1.8,0,0,0-1.46-.61,1.83,1.83,0,0,0-1.48.61,2.72,2.72,0,0,0-.56,1.76l0,.7,0,.71a2.69,2.69,0,0,0,.56,1.75,1.88,1.88,0,0,0,1.48.59A1.85,1.85,0,0,0,209.09,205.51Z"/><path class="cls-3" d="M215.37,207.62a.4.4,0,0,1-.13-.31v-7h-1.46a.4.4,0,0,1-.31-.13.44.44,0,0,1-.13-.31v-1.06a.46.46,0,0,1,.13-.31.43.43,0,0,1,.31-.12h1.46v-.73a3.13,3.13,0,0,1,.89-2.44,3.82,3.82,0,0,1,2.67-.81H220a.44.44,0,0,1,.44.44v1.06a.42.42,0,0,1-.13.31.43.43,0,0,1-.31.12h-1.15a1.22,1.22,0,0,0-1,.35,1.58,1.58,0,0,0-.29,1.06v.64h2.25a.43.43,0,0,1,.31.12.46.46,0,0,1,.13.31v1.06a.44.44,0,0,1-.13.31.4.4,0,0,1-.31.13h-2.25v7a.43.43,0,0,1-.44.44h-1.5A.42.42,0,0,1,215.37,207.62Z"/><path class="cls-3" d="M226.13,207.62a.44.44,0,0,1-.13-.31V195.36a.44.44,0,0,1,.13-.32.43.43,0,0,1,.31-.12H228a.42.42,0,0,1,.32.12.44.44,0,0,1,.12.32v11.95a.43.43,0,0,1-.44.44h-1.51A.44.44,0,0,1,226.13,207.62Z"/><path class="cls-3" d="M231.9,207.56a3.09,3.09,0,0,1-1.21-1,2.45,2.45,0,0,1,.55-3.37,5.89,5.89,0,0,1,2.73-1l2.47-.36v-.38a1.63,1.63,0,0,0-.39-1.18,1.77,1.77,0,0,0-1.27-.39,1.9,1.9,0,0,0-1,.21,3.25,3.25,0,0,0-.58.45l-.3.29a.27.27,0,0,1-.27.22h-1.41a.41.41,0,0,1-.28-.11.37.37,0,0,1-.12-.29,1.92,1.92,0,0,1,.44-1,3.47,3.47,0,0,1,1.31-1,5.09,5.09,0,0,1,2.19-.42,4.31,4.31,0,0,1,3.11.95,3.37,3.37,0,0,1,1,2.51v5.67a.43.43,0,0,1-.12.31.42.42,0,0,1-.31.13H237a.46.46,0,0,1-.31-.13.44.44,0,0,1-.13-.31v-.7a2.94,2.94,0,0,1-1.12.95,4,4,0,0,1-1.8.37A4,4,0,0,1,231.9,207.56Zm3.93-2a2.58,2.58,0,0,0,.63-1.87v-.37l-1.81.29c-1.38.22-2.07.68-2.07,1.39a1,1,0,0,0,.48.9,2,2,0,0,0,1.14.31A2.14,2.14,0,0,0,235.83,205.54Z"/><path class="cls-3" d="M241.39,207.62a.44.44,0,0,1-.13-.31v-8.52a.44.44,0,0,1,.13-.32.44.44,0,0,1,.31-.11h1.5a.41.41,0,0,1,.31.11.44.44,0,0,1,.12.32v.74a3.68,3.68,0,0,1,3-1.35,3.37,3.37,0,0,1,2.63,1.08,4.28,4.28,0,0,1,1,3v5.07a.43.43,0,0,1-.12.31.42.42,0,0,1-.31.13H248.2a.46.46,0,0,1-.31-.13.43.43,0,0,1-.12-.31v-5a2.42,2.42,0,0,0-.52-1.64,1.84,1.84,0,0,0-1.47-.58,1.92,1.92,0,0,0-1.48.59,2.3,2.3,0,0,0-.56,1.63v5a.43.43,0,0,1-.12.31.42.42,0,0,1-.31.13H241.7A.46.46,0,0,1,241.39,207.62Z"/><path class="cls-3" d="M253.31,206.76a5,5,0,0,1-1.06-3.11l0-.6,0-.59a5,5,0,0,1,1.05-3.1,3.86,3.86,0,0,1,5.57,0v-4A.44.44,0,0,1,259,195a.43.43,0,0,1,.31-.12h1.57a.4.4,0,0,1,.31.12.44.44,0,0,1,.12.32v11.95a.43.43,0,0,1-.12.31.41.41,0,0,1-.31.13h-1.46a.42.42,0,0,1-.31-.13.4.4,0,0,1-.13-.31v-.67a3.88,3.88,0,0,1-5.67.12Zm5-1.44a2.9,2.9,0,0,0,.55-1.64,6,6,0,0,0,0-.68,6.47,6.47,0,0,0,0-.71,2.45,2.45,0,0,0-.56-1.53,1.85,1.85,0,0,0-1.51-.63c-1.29,0-2,.79-2.06,2.38l0,.54,0,.54c.08,1.59.77,2.39,2.06,2.39A1.78,1.78,0,0,0,258.32,205.32Z"/><path class="cls-3" d="M269,207.56a3.09,3.09,0,0,1-1.21-1,2.45,2.45,0,0,1,.55-3.37,6,6,0,0,1,2.73-1l2.48-.36v-.38a1.63,1.63,0,0,0-.4-1.18,1.77,1.77,0,0,0-1.27-.39,1.88,1.88,0,0,0-.95.21,3.36,3.36,0,0,0-.59.45l-.3.29a.27.27,0,0,1-.27.22h-1.41a.41.41,0,0,1-.28-.11.36.36,0,0,1-.11-.29,1.84,1.84,0,0,1,.44-1,3.4,3.4,0,0,1,1.31-1,5.08,5.08,0,0,1,2.18-.42,4.31,4.31,0,0,1,3.11.95,3.37,3.37,0,0,1,1,2.51v5.67a.47.47,0,0,1-.11.31.44.44,0,0,1-.32.13h-1.5a.46.46,0,0,1-.31-.13.43.43,0,0,1-.12-.31v-.7a3.1,3.1,0,0,1-1.12.95,4,4,0,0,1-1.81.37A4,4,0,0,1,269,207.56Zm3.93-2a2.58,2.58,0,0,0,.63-1.87v-.37l-1.8.29c-1.39.22-2.08.68-2.08,1.39a1,1,0,0,0,.48.9,2,2,0,0,0,1.15.31A2.13,2.13,0,0,0,272.94,205.54Z"/><path class="cls-3" d="M278.5,207.62a.43.43,0,0,1-.12-.31v-8.52a.4.4,0,0,1,.43-.43h1.5a.43.43,0,0,1,.32.11.48.48,0,0,1,.11.32v.74a3.69,3.69,0,0,1,3-1.35,3.38,3.38,0,0,1,2.64,1.08,4.28,4.28,0,0,1,1,3v5.07a.43.43,0,0,1-.12.31.41.41,0,0,1-.31.13h-1.63a.42.42,0,0,1-.3-.13.4.4,0,0,1-.13-.31v-5a2.37,2.37,0,0,0-.52-1.64,1.84,1.84,0,0,0-1.47-.58,1.92,1.92,0,0,0-1.48.59,2.3,2.3,0,0,0-.56,1.63v5a.43.43,0,0,1-.12.31.41.41,0,0,1-.31.13h-1.61A.46.46,0,0,1,278.5,207.62Z"/><path class="cls-3" d="M290.42,206.76a5,5,0,0,1-1.06-3.11l0-.6,0-.59a5,5,0,0,1,1.06-3.1,3.42,3.42,0,0,1,2.8-1.18,3.46,3.46,0,0,1,2.77,1.19v-4a.44.44,0,0,1,.12-.32.45.45,0,0,1,.31-.12H298a.44.44,0,0,1,.32.12.43.43,0,0,1,.11.32v11.95a.42.42,0,0,1-.11.31.44.44,0,0,1-.32.13h-1.46a.46.46,0,0,1-.31-.13.44.44,0,0,1-.13-.31v-.67a3.39,3.39,0,0,1-2.87,1.29A3.45,3.45,0,0,1,290.42,206.76Zm5-1.44a3,3,0,0,0,.55-1.64c0-.14,0-.37,0-.68s0-.56,0-.71a2.51,2.51,0,0,0-.56-1.53,1.87,1.87,0,0,0-1.52-.63c-1.29,0-2,.79-2.06,2.38l0,.54,0,.54c.09,1.59.77,2.39,2.06,2.39A1.8,1.8,0,0,0,295.44,205.32Z"/><path class="cls-3" d="M305.23,211.06a.42.42,0,0,1-.12-.32v-12a.4.4,0,0,1,.43-.43H307a.44.44,0,0,1,.32.12.46.46,0,0,1,.13.31v.72a3.28,3.28,0,0,1,2.87-1.33,3.49,3.49,0,0,1,2.8,1.14,4.85,4.85,0,0,1,1,3.08,5.66,5.66,0,0,1,0,.65,5.56,5.56,0,0,1,0,.65,4.77,4.77,0,0,1-1,3.06,3.48,3.48,0,0,1-2.81,1.17,3.21,3.21,0,0,1-2.76-1.29v4.1a.42.42,0,0,1-.12.32.44.44,0,0,1-.32.12h-1.57A.45.45,0,0,1,305.23,211.06Zm6.45-7.47c0-.12,0-.3,0-.54s0-.42,0-.54c-.08-1.59-.77-2.38-2.06-2.38a1.8,1.8,0,0,0-1.53.66,2.77,2.77,0,0,0-.54,1.63,6.07,6.07,0,0,0,0,.69,6.57,6.57,0,0,0,0,.7,2.5,2.5,0,0,0,.55,1.53,1.85,1.85,0,0,0,1.52.64C310.91,206,311.6,205.18,311.68,203.59Z"/><path class="cls-3" d="M316.38,207.62a.4.4,0,0,1-.13-.31v-8.5a.43.43,0,0,1,.13-.33.41.41,0,0,1,.3-.12h1.48a.46.46,0,0,1,.33.12.47.47,0,0,1,.13.33v.74a3,3,0,0,1,2.6-1.19H322a.42.42,0,0,1,.32.11.44.44,0,0,1,.12.32v1.32a.41.41,0,0,1-.12.3.39.39,0,0,1-.32.13h-1.42a1.69,1.69,0,0,0-1.83,1.82v4.95a.43.43,0,0,1-.12.31.46.46,0,0,1-.31.13h-1.61A.42.42,0,0,1,316.38,207.62Z"/><path class="cls-3" d="M324.77,206.84a4.18,4.18,0,0,1-1.24-3l0-.8,0-.79a4.17,4.17,0,0,1,1.26-3,5.42,5.42,0,0,1,6.52,0,4.18,4.18,0,0,1,1.27,3c0,.14,0,.41,0,.79s0,.65,0,.8a4.19,4.19,0,0,1-1.25,3,5.48,5.48,0,0,1-6.56,0Zm4.76-1.33a2.69,2.69,0,0,0,.55-1.75,6,6,0,0,0,0-.71,5.79,5.79,0,0,0,0-.7,2.72,2.72,0,0,0-.56-1.76,1.8,1.8,0,0,0-1.46-.61,1.83,1.83,0,0,0-1.48.61,2.72,2.72,0,0,0-.56,1.76l0,.7,0,.71a2.69,2.69,0,0,0,.56,1.75,1.88,1.88,0,0,0,1.48.59A1.85,1.85,0,0,0,329.53,205.51Z"/><path class="cls-3" d="M334.82,211.06a.39.39,0,0,1-.13-.32v-12a.41.41,0,0,1,.13-.32.4.4,0,0,1,.3-.11h1.45a.44.44,0,0,1,.32.12.42.42,0,0,1,.13.31v.72a3.29,3.29,0,0,1,2.87-1.33,3.48,3.48,0,0,1,2.8,1.14,4.91,4.91,0,0,1,1.05,3.08c0,.15,0,.36,0,.65s0,.51,0,.65a4.83,4.83,0,0,1-1,3.06,3.47,3.47,0,0,1-2.81,1.17,3.22,3.22,0,0,1-2.76-1.29v4.1a.41.41,0,0,1-.44.44h-1.57A.41.41,0,0,1,334.82,211.06Zm6.44-7.47c0-.12,0-.3,0-.54s0-.42,0-.54c-.08-1.59-.77-2.38-2.06-2.38a1.81,1.81,0,0,0-1.53.66,2.77,2.77,0,0,0-.54,1.63,6.07,6.07,0,0,0,0,.69,6.57,6.57,0,0,0,0,.7,2.45,2.45,0,0,0,.56,1.53,1.83,1.83,0,0,0,1.51.64C340.49,206,341.18,205.18,341.26,203.59Z"/><path class="cls-3" d="M346.69,206.77a4.61,4.61,0,0,1-1.26-3.29V203a5.06,5.06,0,0,1,1.18-3.55,4.83,4.83,0,0,1,6.59,0,5,5,0,0,1,1.17,3.46v.38a.44.44,0,0,1-.13.31.45.45,0,0,1-.33.13h-6v.14a2.81,2.81,0,0,0,.55,1.67,1.69,1.69,0,0,0,1.42.66,2.06,2.06,0,0,0,1.68-.83.87.87,0,0,1,.25-.24.73.73,0,0,1,.31,0h1.59a.47.47,0,0,1,.28.09.31.31,0,0,1,.11.25,1.68,1.68,0,0,1-.51,1,4.33,4.33,0,0,1-1.47,1,5.33,5.33,0,0,1-2.22.44A4.4,4.4,0,0,1,346.69,206.77Zm5.17-4.55v0a2.54,2.54,0,0,0-.53-1.7,2,2,0,0,0-2.9,0,2.6,2.6,0,0,0-.52,1.7v0Z"/><path class="cls-3" d="M356.47,207.62a.44.44,0,0,1-.13-.31v-8.5a.47.47,0,0,1,.13-.33.43.43,0,0,1,.31-.12h1.48a.44.44,0,0,1,.32.12.43.43,0,0,1,.13.33v.74a3,3,0,0,1,2.6-1.19h.76a.39.39,0,0,1,.31.11.44.44,0,0,1,.12.32v1.32a.41.41,0,0,1-.12.3.37.37,0,0,1-.31.13h-1.43a1.68,1.68,0,0,0-1.82,1.82v4.95a.44.44,0,0,1-.44.44h-1.6A.44.44,0,0,1,356.47,207.62Z"/><path class="cls-3" d="M365.77,206.89a3.49,3.49,0,0,1-.83-2.52v-4.08h-1.43a.38.38,0,0,1-.3-.13.4.4,0,0,1-.13-.31v-1.06a.42.42,0,0,1,.13-.31.41.41,0,0,1,.3-.12h1.43v-3a.43.43,0,0,1,.43-.44h1.5a.44.44,0,0,1,.32.12.43.43,0,0,1,.11.32v3h2.26a.43.43,0,0,1,.31.12.46.46,0,0,1,.13.31v1.06a.44.44,0,0,1-.13.31.4.4,0,0,1-.31.13H367.3v3.88a2.06,2.06,0,0,0,.28,1.17,1,1,0,0,0,.88.4h1.27a.41.41,0,0,1,.31.12.42.42,0,0,1,.12.32v1.13a.43.43,0,0,1-.12.31.42.42,0,0,1-.31.13h-1.49A3.29,3.29,0,0,1,365.77,206.89Z"/><path class="cls-3" d="M373.27,211.07a.36.36,0,0,1-.11-.25.68.68,0,0,1,.07-.29l1.43-3.34L371.19,199a.67.67,0,0,1-.07-.26.47.47,0,0,1,.12-.28.33.33,0,0,1,.27-.11H373a.48.48,0,0,1,.47.34l2.4,5.89,2.44-5.89a.55.55,0,0,1,.51-.34h1.46a.36.36,0,0,1,.27.1.38.38,0,0,1,.11.26.71.71,0,0,1-.07.29l-5.11,11.83a.53.53,0,0,1-.51.34h-1.44A.4.4,0,0,1,373.27,211.07Z"/><path class="cls-3" d="M386.61,207.62a.44.44,0,0,1-.13-.31v-8.5a.47.47,0,0,1,.13-.33.43.43,0,0,1,.31-.12h1.48a.44.44,0,0,1,.32.12.43.43,0,0,1,.13.33v.74a3,3,0,0,1,2.6-1.19h.76a.43.43,0,0,1,.32.11.48.48,0,0,1,.11.32v1.32a.44.44,0,0,1-.11.3.41.41,0,0,1-.32.13h-1.43a1.69,1.69,0,0,0-1.82,1.82v4.95a.4.4,0,0,1-.13.31.42.42,0,0,1-.3.13h-1.61A.44.44,0,0,1,386.61,207.62Z"/><path class="cls-3" d="M394.18,196.69a.38.38,0,0,1-.13-.3v-1.32a.44.44,0,0,1,.13-.33.41.41,0,0,1,.31-.12h1.66a.44.44,0,0,1,.32.12.44.44,0,0,1,.13.33v1.32a.39.39,0,0,1-.14.3.42.42,0,0,1-.31.13h-1.66A.39.39,0,0,1,394.18,196.69Zm.07,10.93a.44.44,0,0,1-.13-.31v-8.52a.44.44,0,0,1,.13-.32.42.42,0,0,1,.31-.11h1.53a.43.43,0,0,1,.31.12.46.46,0,0,1,.13.31v8.52a.44.44,0,0,1-.44.44h-1.53A.44.44,0,0,1,394.25,207.62Z"/><path class="cls-3" d="M400.63,211.19a3.47,3.47,0,0,1-1.41-1.22,2.38,2.38,0,0,1-.42-1.18.35.35,0,0,1,.13-.29.41.41,0,0,1,.3-.12h1.61a.51.51,0,0,1,.28.08.54.54,0,0,1,.19.3,2,2,0,0,0,.6.8,1.88,1.88,0,0,0,1.23.34,2.26,2.26,0,0,0,1.59-.48,2.28,2.28,0,0,0,.5-1.67v-1.23a3.41,3.41,0,0,1-2.76,1.15,3.47,3.47,0,0,1-2.83-1.13,5,5,0,0,1-1-3.11l0-.49,0-.48a5.08,5.08,0,0,1,1-3.11,3.44,3.44,0,0,1,2.82-1.17,3.71,3.71,0,0,1,1.68.36,3.33,3.33,0,0,1,1.19,1v-.7a.43.43,0,0,1,.13-.33.49.49,0,0,1,.32-.12h1.48a.45.45,0,0,1,.31.12.47.47,0,0,1,.13.33v8.7a4.16,4.16,0,0,1-1.12,3.11,4.63,4.63,0,0,1-3.37,1.1A5.53,5.53,0,0,1,400.63,211.19Zm4-6.08a2.77,2.77,0,0,0,.56-1.59c0-.1,0-.29,0-.58s0-.48,0-.58a2.77,2.77,0,0,0-.56-1.58,1.79,1.79,0,0,0-1.52-.65c-1.3,0-2,.79-2,2.38l0,.43q0,2.82,2.07,2.82A1.81,1.81,0,0,0,404.67,205.11Z"/><path class="cls-3" d="M410.32,207.62a.43.43,0,0,1-.12-.31V195.36a.44.44,0,0,1,.12-.32.45.45,0,0,1,.31-.12h1.64a.42.42,0,0,1,.32.12.44.44,0,0,1,.12.32v4.12a3.58,3.58,0,0,1,2.91-1.3,3.4,3.4,0,0,1,2.65,1.09,4.26,4.26,0,0,1,1,3v5.07a.47.47,0,0,1-.11.31.44.44,0,0,1-.32.13h-1.64a.47.47,0,0,1-.33-.13.43.43,0,0,1-.12-.31v-5a2.42,2.42,0,0,0-.52-1.64,1.84,1.84,0,0,0-1.47-.58,1.91,1.91,0,0,0-1.48.59,2.26,2.26,0,0,0-.56,1.63v5a.43.43,0,0,1-.44.44h-1.64A.46.46,0,0,1,410.32,207.62Z"/><path class="cls-3" d="M423.42,206.89a3.45,3.45,0,0,1-.83-2.52v-4.08h-1.43a.42.42,0,0,1-.31-.13.43.43,0,0,1-.12-.31v-1.06a.41.41,0,0,1,.43-.43h1.43v-3a.44.44,0,0,1,.12-.32.45.45,0,0,1,.31-.12h1.5a.4.4,0,0,1,.31.12.44.44,0,0,1,.12.32v3h2.26a.41.41,0,0,1,.43.43v1.06a.43.43,0,0,1-.12.31.42.42,0,0,1-.31.13H425v3.88a2.06,2.06,0,0,0,.27,1.17,1,1,0,0,0,.89.4h1.26a.44.44,0,0,1,.32.12.42.42,0,0,1,.12.32v1.13a.43.43,0,0,1-.12.31.44.44,0,0,1-.32.13h-1.48A3.29,3.29,0,0,1,423.42,206.89Z"/><path class="cls-3" d="M430.77,207.51a3.64,3.64,0,0,1-1.37-1,1.68,1.68,0,0,1-.44-1,.37.37,0,0,1,.12-.29.41.41,0,0,1,.28-.11h1.48a.31.31,0,0,1,.25.14l.41.35a2.35,2.35,0,0,0,.72.42,2.57,2.57,0,0,0,.9.16,2.25,2.25,0,0,0,1.17-.28.91.91,0,0,0,.45-.81.81.81,0,0,0-.21-.58,1.89,1.89,0,0,0-.74-.42,12.35,12.35,0,0,0-1.6-.42,4.81,4.81,0,0,1-2.26-1,2.26,2.26,0,0,1-.73-1.77,2.38,2.38,0,0,1,.43-1.36,3.11,3.11,0,0,1,1.29-1,4.78,4.78,0,0,1,2.05-.4,5.2,5.2,0,0,1,2.11.38,3.74,3.74,0,0,1,1.35.93,1.56,1.56,0,0,1,.46,1,.41.41,0,0,1-.4.4h-1.35a.36.36,0,0,1-.31-.15l-.41-.33a2.32,2.32,0,0,0-.62-.39,2.06,2.06,0,0,0-.83-.14,1.58,1.58,0,0,0-1,.29.91.91,0,0,0-.36.75.9.9,0,0,0,.17.55,1.62,1.62,0,0,0,.7.4,10.1,10.1,0,0,0,1.57.39q3.25.63,3.25,2.84a2.44,2.44,0,0,1-1.11,2.07,5.24,5.24,0,0,1-3.1.8A5.51,5.51,0,0,1,430.77,207.51Z"/></svg>