<svg id="Layer_1" data-name="Layer 1" xmlns="http://www.w3.org/2000/svg" viewBox="0 0 567.38 251.56"><defs><style>.cls-1{fill:#fa5a14;}.cls-2{fill:#fff;}.cls-3{fill:none;}</style></defs><title>Prindex_logo_horizontal_orange</title><path class="cls-1" d="M177.56,99.28,120.72,62.63a1.55,1.55,0,0,0-1.68,0L62.2,99.28a2,2,0,0,0-.9,1.64v36.43a1.55,1.55,0,0,0,1.55,1.55H76.5a1.54,1.54,0,0,1,1.55,1.54v27.62a1.54,1.54,0,0,0,1.55,1.54H93.25a1.55,1.55,0,0,0,1.55-1.54V129.63a1.54,1.54,0,0,1,1.54-1.55H110a1.54,1.54,0,0,1,1.54,1.55v27.68a1.54,1.54,0,0,0,1.55,1.55h13.65a1.55,1.55,0,0,1,1.55,1.54v27.91a1.24,1.24,0,0,0,1.23,1.24h14.27a1.24,1.24,0,0,0,1.24-1.24V160.46a1.54,1.54,0,0,1,1.54-1.54h13.66a1.55,1.55,0,0,0,1.55-1.55v-43.6a1.54,1.54,0,0,1,1.54-1.54h13.59a1.54,1.54,0,0,0,1.54-1.55v-9.76A2,2,0,0,0,177.56,99.28Z"/><path class="cls-2" d="M205.18,158.28a2,2,0,0,1-.63-1.47V102.45a2.19,2.19,0,0,1,.58-1.55,2,2,0,0,1,1.51-.63h23.71q10.89,0,17.08,5t6.2,14.49q0,9.54-6.2,14.28t-17.08,4.73H220.8v18.09a2.1,2.1,0,0,1-.59,1.47,2,2,0,0,1-1.51.63H206.64A2,2,0,0,1,205.18,158.28Zm24.75-31.54a7.69,7.69,0,0,0,5.4-1.8,6.85,6.85,0,0,0,2-5.32,7.61,7.61,0,0,0-1.8-5.27q-1.8-2-5.57-2h-9.38v14.4Z"/><path class="cls-2" d="M258.11,158.28a2,2,0,0,1-.63-1.47V117.53a2.2,2.2,0,0,1,.59-1.55,2,2,0,0,1,1.51-.63H269.8a2.15,2.15,0,0,1,2.18,2.18v3.18a16.13,16.13,0,0,1,5.48-4,17.25,17.25,0,0,1,7-1.38h3.77a2,2,0,0,1,2.09,2.1v9.13a2.09,2.09,0,0,1-.59,1.46,2,2,0,0,1-1.5.63h-8.46a6.92,6.92,0,0,0-5.16,1.84,7.13,7.13,0,0,0-1.8,5.2v21.1a2,2,0,0,1-.63,1.51,2.17,2.17,0,0,1-1.55.59H259.58A2,2,0,0,1,258.11,158.28Z"/><path class="cls-2" d="M295.34,108.69a2.18,2.18,0,0,1-.58-1.55V99.35a2.11,2.11,0,0,1,.63-1.55,2,2,0,0,1,1.46-.62h10.47a2.14,2.14,0,0,1,2.18,2.17v7.79a2.15,2.15,0,0,1-2.18,2.18H296.85A2,2,0,0,1,295.34,108.69Zm.05,49.59a2,2,0,0,1-.63-1.47V117.45a2,2,0,0,1,.63-1.51,2.07,2.07,0,0,1,1.46-.59h10.47a2.19,2.19,0,0,1,1.55.59,2,2,0,0,1,.63,1.51v39.36a2,2,0,0,1-.63,1.51,2.19,2.19,0,0,1-1.55.59H296.85A2,2,0,0,1,295.39,158.28Z"/><path class="cls-2" d="M316.91,158.28a2,2,0,0,1-.63-1.47V117.45a2,2,0,0,1,.63-1.51,2.1,2.1,0,0,1,1.47-.59h10.3a2,2,0,0,1,2.1,2.1v3.18a16.34,16.34,0,0,1,5.82-4.44,18.89,18.89,0,0,1,8.16-1.68,16.58,16.58,0,0,1,8.51,2.18,15.1,15.1,0,0,1,5.86,6.45,22.88,22.88,0,0,1,2.13,10.3v23.37a2.09,2.09,0,0,1-.58,1.47,2,2,0,0,1-1.51.63H348a2.2,2.2,0,0,1-1.55-.59,2,2,0,0,1-.63-1.51V134a8.37,8.37,0,0,0-1.8-5.78,6.65,6.65,0,0,0-5.23-2,6.87,6.87,0,0,0-5.28,2.05,8,8,0,0,0-1.93,5.74v22.86a2.09,2.09,0,0,1-.58,1.47,2,2,0,0,1-1.51.63H318.38A2,2,0,0,1,316.91,158.28Z"/><path class="cls-2" d="M371.61,154.64q-4.65-5.12-5-14.58l-.09-2.93.09-3q.33-9.12,5-14.36t12.73-5.24q7.55,0,12.15,4.86V101.53a2,2,0,0,1,.63-1.51,2,2,0,0,1,1.46-.58h10.81A2.19,2.19,0,0,1,411,100a2,2,0,0,1,.63,1.51v55.28a2,2,0,0,1-.63,1.51,2.2,2.2,0,0,1-1.55.59h-10a2.14,2.14,0,0,1-2.09-2.1v-2.59q-4.53,5.52-13,5.53Q376.27,159.75,371.61,154.64Zm23-8.84a10.17,10.17,0,0,0,1.93-5.82c.11-1.56.17-2.63.17-3.18s-.06-1.65-.17-3.1a8.85,8.85,0,0,0-2-5.41,6.57,6.57,0,0,0-5.32-2.13q-3.76,0-5.4,2.22a11.49,11.49,0,0,0-1.89,6.15l-.08,2.6.08,2.6a11.49,11.49,0,0,0,1.89,6.15q1.64,2.22,5.4,2.22A6.3,6.3,0,0,0,394.6,145.8Z"/><path class="cls-2" d="M423.58,154.26q-5.86-5.49-6-16v-2.59q.33-10,6.2-15.58t15.83-5.62a24,24,0,0,1,12.19,2.89,18.28,18.28,0,0,1,7.45,8,25.93,25.93,0,0,1,2.47,11.52V139a2.14,2.14,0,0,1-2.17,2.18H433v.5a10.53,10.53,0,0,0,1.76,6.08,5.57,5.57,0,0,0,4.78,2.3,5.79,5.79,0,0,0,3.22-.8,11.2,11.2,0,0,0,2.31-2,4.31,4.31,0,0,1,1.21-1.05,4.05,4.05,0,0,1,1.47-.2h11a2,2,0,0,1,1.3.46,1.42,1.42,0,0,1,.54,1.13q0,2.17-2.47,5.11a19.63,19.63,0,0,1-7.2,5,27.45,27.45,0,0,1-11.19,2.1Q429.45,159.75,423.58,154.26Zm22.7-21.65v-.17a9.78,9.78,0,0,0-1.76-6.24,5.94,5.94,0,0,0-4.94-2.22,5.83,5.83,0,0,0-4.9,2.22,10,10,0,0,0-1.72,6.24v.17Z"/><path class="cls-2" d="M462.45,158.36a1.8,1.8,0,0,1-.59-1.38,1.92,1.92,0,0,1,.5-1.25l13.91-19.19-12.65-18a2.12,2.12,0,0,1-.5-1.26,1.79,1.79,0,0,1,.58-1.38,1.89,1.89,0,0,1,1.34-.55h10.81a2.32,2.32,0,0,1,1.51.42,6.34,6.34,0,0,1,1,1.09l7.37,10.3,7.46-10.3.42-.5a2.62,2.62,0,0,1,.88-.71,2.44,2.44,0,0,1,1.21-.3H506a1.89,1.89,0,0,1,1.34.55,1.7,1.7,0,0,1,.59,1.29,2.28,2.28,0,0,1-.5,1.35l-12.9,18,14.15,19.19a2.11,2.11,0,0,1,.42,1.25,1.86,1.86,0,0,1-1.93,1.93h-11.3a2.78,2.78,0,0,1-2.35-1.34l-8.12-11.06-8.21,11.06a4.12,4.12,0,0,1-1,1,2.48,2.48,0,0,1-1.42.34h-11A1.88,1.88,0,0,1,462.45,158.36Z"/><rect class="cls-3" x="0.48" y="0.45" width="566.9" height="250.66"/></svg>