<svg id="Layer_1" data-name="Layer 1" xmlns="http://www.w3.org/2000/svg" viewBox="0 0 284.22 370.24"><defs><style>.cls-1{fill:none;}.cls-2{fill:#fa5a14;}.cls-3{fill:#fff;}</style></defs><title>Prindex_logo_verticle_orange-white_strapline_1</title><rect class="cls-1" x="0.38" y="0.38" width="283.46" height="369.48"/><path class="cls-2" d="M243,103.79l-99.31-64a2.67,2.67,0,0,0-2.92,0l-99.31,64a3.39,3.39,0,0,0-1.56,2.85v63.65a2.7,2.7,0,0,0,2.7,2.7H66.47a2.7,2.7,0,0,1,2.7,2.7v48.24a2.7,2.7,0,0,0,2.7,2.7H95.73a2.7,2.7,0,0,0,2.7-2.7V156.79a2.7,2.7,0,0,1,2.7-2.7H125a2.7,2.7,0,0,1,2.7,2.7v48.37a2.7,2.7,0,0,0,2.7,2.7h23.85a2.7,2.7,0,0,1,2.7,2.7v48.76a2.16,2.16,0,0,0,2.16,2.16H184a2.16,2.16,0,0,0,2.16-2.16V210.66a2.69,2.69,0,0,1,2.69-2.7h23.86a2.7,2.7,0,0,0,2.7-2.7V129.1a2.7,2.7,0,0,1,2.7-2.7h23.74a2.7,2.7,0,0,0,2.7-2.7V106.64A3.39,3.39,0,0,0,243,103.79Z"/><path class="cls-3" d="M41,329.82a1.35,1.35,0,0,1-.42-1V292.51a1.45,1.45,0,0,1,.39-1,1.32,1.32,0,0,1,1-.42H57.84q7.27,0,11.42,3.3T73.4,304q0,6.39-4.14,9.55t-11.42,3.16H51.46v12.09a1.4,1.4,0,0,1-.39,1,1.32,1.32,0,0,1-1,.42H42A1.33,1.33,0,0,1,41,329.82Zm16.54-21.08a5.16,5.16,0,0,0,3.61-1.2A4.56,4.56,0,0,0,62.48,304a5.1,5.1,0,0,0-1.2-3.53,4.76,4.76,0,0,0-3.72-1.34H51.29v9.62Z"/><path class="cls-3" d="M76.39,329.82a1.35,1.35,0,0,1-.42-1V302.59a1.44,1.44,0,0,1,.4-1,1.3,1.3,0,0,1,1-.42H84.2a1.43,1.43,0,0,1,1.46,1.46v2.12a10.62,10.62,0,0,1,3.66-2.65,11.43,11.43,0,0,1,4.68-.93h2.52a1.35,1.35,0,0,1,1,.39,1.4,1.4,0,0,1,.4,1v6.1a1.39,1.39,0,0,1-.4,1,1.3,1.3,0,0,1-1,.42H90.86a4.59,4.59,0,0,0-3.44,1.23,4.78,4.78,0,0,0-1.2,3.47v14.11a1.32,1.32,0,0,1-.42,1,1.48,1.48,0,0,1-1,.39H77.37A1.35,1.35,0,0,1,76.39,329.82Z"/><path class="cls-3" d="M101.27,296.68a1.45,1.45,0,0,1-.39-1v-5.21a1.4,1.4,0,0,1,.42-1,1.35,1.35,0,0,1,1-.42h7a1.43,1.43,0,0,1,1.45,1.45v5.21a1.43,1.43,0,0,1-1.45,1.45h-7A1.32,1.32,0,0,1,101.27,296.68Zm0,33.14a1.35,1.35,0,0,1-.42-1V302.53a1.34,1.34,0,0,1,.42-1,1.4,1.4,0,0,1,1-.39h7a1.45,1.45,0,0,1,1,.39,1.34,1.34,0,0,1,.42,1v26.31a1.32,1.32,0,0,1-.42,1,1.45,1.45,0,0,1-1,.39h-7A1.35,1.35,0,0,1,101.3,329.82Z"/><path class="cls-3" d="M115.69,329.82a1.35,1.35,0,0,1-.42-1V302.53a1.34,1.34,0,0,1,.42-1,1.38,1.38,0,0,1,1-.39h6.88a1.37,1.37,0,0,1,1,.39,1.39,1.39,0,0,1,.39,1v2.13a11,11,0,0,1,3.89-3,12.8,12.8,0,0,1,5.46-1.12A11,11,0,0,1,140,302a10,10,0,0,1,3.92,4.31,15.27,15.27,0,0,1,1.42,6.88v15.62a1.4,1.4,0,0,1-.39,1,1.3,1.3,0,0,1-1,.42h-7.45a1.45,1.45,0,0,1-1-.39,1.32,1.32,0,0,1-.42-1V313.56a5.6,5.6,0,0,0-1.21-3.86,4.44,4.44,0,0,0-3.5-1.35,4.61,4.61,0,0,0-3.52,1.37,5.4,5.4,0,0,0-1.29,3.84v15.28a1.4,1.4,0,0,1-.39,1,1.32,1.32,0,0,1-1,.42h-7.44A1.33,1.33,0,0,1,115.69,329.82Z"/><path class="cls-3" d="M152.24,327.38q-3.11-3.4-3.33-9.74l-.06-1.95.06-2q.22-6.1,3.36-9.6a10.83,10.83,0,0,1,8.5-3.5,10.69,10.69,0,0,1,8.12,3.25V291.9a1.32,1.32,0,0,1,.42-1,1.4,1.4,0,0,1,1-.39h7.22a1.49,1.49,0,0,1,1,.39,1.35,1.35,0,0,1,.41,1v36.94a1.35,1.35,0,0,1-.41,1,1.49,1.49,0,0,1-1,.39h-6.66a1.44,1.44,0,0,1-1.4-1.4V327.1q-3,3.7-8.68,3.7A10.94,10.94,0,0,1,152.24,327.38Zm15.36-5.9a6.78,6.78,0,0,0,1.29-3.89c.07-1,.11-1.75.11-2.13s0-1.1-.11-2.07a5.9,5.9,0,0,0-1.32-3.61,4.38,4.38,0,0,0-3.55-1.43,4.19,4.19,0,0,0-3.61,1.49,7.64,7.64,0,0,0-1.26,4.11l-.06,1.74.06,1.73a7.58,7.58,0,0,0,1.26,4.11,5,5,0,0,0,7.19,0Z"/><path class="cls-3" d="M187,327.13q-3.91-3.66-4-10.66v-1.74q.23-6.66,4.14-10.41t10.58-3.75a16,16,0,0,1,8.14,1.93,12.31,12.31,0,0,1,5,5.32,17.35,17.35,0,0,1,1.65,7.7v1.4a1.4,1.4,0,0,1-.42,1,1.42,1.42,0,0,1-1,.42H193.24v.34a7,7,0,0,0,1.17,4.06,3.73,3.73,0,0,0,3.19,1.54,3.84,3.84,0,0,0,2.16-.54,7.47,7.47,0,0,0,1.54-1.37,3,3,0,0,1,.81-.7,2.57,2.57,0,0,1,1-.14h7.33a1.32,1.32,0,0,1,.87.31,1,1,0,0,1,.36.76A5.68,5.68,0,0,1,210,326a13,13,0,0,1-4.81,3.36,18.42,18.42,0,0,1-7.48,1.4Q190.89,330.8,187,327.13Zm15.17-14.47v-.11a6.59,6.59,0,0,0-1.18-4.17,4,4,0,0,0-3.3-1.48,3.9,3.9,0,0,0-3.28,1.48,6.71,6.71,0,0,0-1.14,4.17v.11Z"/><path class="cls-3" d="M212.94,329.88a1.24,1.24,0,0,1-.39-.93,1.28,1.28,0,0,1,.33-.84l9.3-12.82-8.46-12a1.45,1.45,0,0,1-.33-.84,1.2,1.2,0,0,1,.39-.92,1.25,1.25,0,0,1,.89-.37h7.23a1.57,1.57,0,0,1,1,.28,4,4,0,0,1,.67.73L228.5,309l5-6.88.28-.34a2,2,0,0,1,.59-.47,1.68,1.68,0,0,1,.81-.2h6.89a1.25,1.25,0,0,1,.89.37,1.14,1.14,0,0,1,.39.86,1.52,1.52,0,0,1-.33.9l-8.62,12,9.46,12.82a1.46,1.46,0,0,1,.28.84,1.25,1.25,0,0,1-1.29,1.29h-7.56a1.83,1.83,0,0,1-1.56-.9L228.28,322l-5.49,7.39a2.65,2.65,0,0,1-.67.67,1.69,1.69,0,0,1-1,.23h-7.33A1.29,1.29,0,0,1,212.94,329.88Z"/></svg>