<svg id="Layer_1" data-name="Layer 1" xmlns="http://www.w3.org/2000/svg" viewBox="0 0 283.64 404.42"><defs><style>.cls-1{fill:#fff;}.cls-2{fill:none;}.cls-3{fill:#fa5a14;}</style></defs><title>Prindex_logo_verticle_orange-white_strapline</title><path class="cls-1" d="M40.66,349.72a.25.25,0,0,1-.09-.2v-7.89a.33.33,0,0,1,.08-.22.29.29,0,0,1,.21-.08h1a.42.42,0,0,1,.37.23l2.34,4.34,2.33-4.34a.42.42,0,0,1,.37-.23h1a.29.29,0,0,1,.21.08.29.29,0,0,1,.09.22v7.89a.26.26,0,0,1-.09.21.29.29,0,0,1-.21.08h-1a.27.27,0,0,1-.2-.09.25.25,0,0,1-.09-.2v-5.21l-1.68,3.2a.43.43,0,0,1-.4.26h-.51a.47.47,0,0,1-.41-.26l-1.68-3.2v5.21a.28.28,0,0,1-.08.2.29.29,0,0,1-.22.09h-1A.25.25,0,0,1,40.66,349.72Z"/><path class="cls-1" d="M50.89,349.15a3.06,3.06,0,0,1-.84-2.2l0-.3a3.42,3.42,0,0,1,.8-2.39,3.24,3.24,0,0,1,4.42,0,3.37,3.37,0,0,1,.78,2.33v.25a.32.32,0,0,1-.08.21.33.33,0,0,1-.22.08h-4v.1a1.92,1.92,0,0,0,.37,1.12,1.16,1.16,0,0,0,1,.44,1.36,1.36,0,0,0,1.12-.56.73.73,0,0,1,.17-.16.51.51,0,0,1,.21,0h1.06a.29.29,0,0,1,.19.06.21.21,0,0,1,.08.17,1.08,1.08,0,0,1-.35.68,2.79,2.79,0,0,1-1,.69,3.67,3.67,0,0,1-1.49.29A2.93,2.93,0,0,1,50.89,349.15Zm3.47-3v0a1.74,1.74,0,0,0-.36-1.15,1.22,1.22,0,0,0-1-.43,1.19,1.19,0,0,0-1,.43,1.74,1.74,0,0,0-.36,1.15v0Z"/><path class="cls-1" d="M58.06,349.68a1.93,1.93,0,0,1-.81-.67,1.56,1.56,0,0,1-.3-.93,1.6,1.6,0,0,1,.67-1.34,3.94,3.94,0,0,1,1.83-.69l1.65-.24v-.25a1.06,1.06,0,0,0-.26-.79,1.16,1.16,0,0,0-.85-.27,1.19,1.19,0,0,0-.64.15,2.17,2.17,0,0,0-.4.29l-.2.2a.18.18,0,0,1-.18.15h-.94a.26.26,0,0,1-.19-.07.28.28,0,0,1-.08-.2,1.28,1.28,0,0,1,.3-.68,2.25,2.25,0,0,1,.88-.67,3.34,3.34,0,0,1,1.46-.28,2.89,2.89,0,0,1,2.09.64,2.28,2.28,0,0,1,.65,1.68v3.81a.28.28,0,0,1-.08.2.26.26,0,0,1-.21.09h-1a.27.27,0,0,1-.2-.09.25.25,0,0,1-.09-.2v-.47a1.89,1.89,0,0,1-.75.63,2.56,2.56,0,0,1-1.21.25A2.5,2.5,0,0,1,58.06,349.68Zm2.63-1.35a1.7,1.7,0,0,0,.43-1.26v-.24l-1.21.19c-.93.15-1.4.46-1.4.93a.68.68,0,0,0,.32.6,1.32,1.32,0,0,0,.77.22A1.45,1.45,0,0,0,60.69,348.33Z"/><path class="cls-1" d="M65.2,349.65a2.5,2.5,0,0,1-.92-.65,1.12,1.12,0,0,1-.29-.63.24.24,0,0,1,.08-.2.24.24,0,0,1,.18-.07h1a.21.21,0,0,1,.17.1l.27.23a1.64,1.64,0,0,0,.48.28,1.72,1.72,0,0,0,.6.1,1.52,1.52,0,0,0,.79-.18.61.61,0,0,0,.3-.54.56.56,0,0,0-.14-.4,1.15,1.15,0,0,0-.49-.27,9.8,9.8,0,0,0-1.07-.29,3.12,3.12,0,0,1-1.52-.67,1.5,1.5,0,0,1-.49-1.18,1.57,1.57,0,0,1,.29-.92,2.11,2.11,0,0,1,.86-.7,3.24,3.24,0,0,1,1.38-.27,3.35,3.35,0,0,1,1.41.26,2.47,2.47,0,0,1,.91.62,1.1,1.1,0,0,1,.31.64.26.26,0,0,1-.08.19.29.29,0,0,1-.19.08h-.91a.24.24,0,0,1-.21-.1l-.27-.22a1.29,1.29,0,0,0-.42-.26,1.32,1.32,0,0,0-.55-.1,1.07,1.07,0,0,0-.69.2.59.59,0,0,0-.25.5.57.57,0,0,0,.12.37,1,1,0,0,0,.47.27,6.6,6.6,0,0,0,1,.26c1.45.28,2.18.92,2.18,1.9a1.66,1.66,0,0,1-.74,1.4,3.57,3.57,0,0,1-2.08.53A3.66,3.66,0,0,1,65.2,349.65Z"/><path class="cls-1" d="M71.43,349.2a2.9,2.9,0,0,1-.65-2v-3.4a.26.26,0,0,1,.09-.21.3.3,0,0,1,.2-.08h1.09a.3.3,0,0,1,.21.08.29.29,0,0,1,.09.21v3.33c0,1,.43,1.49,1.29,1.49a1.29,1.29,0,0,0,1-.4,1.53,1.53,0,0,0,.37-1.09V343.8a.26.26,0,0,1,.09-.21.28.28,0,0,1,.2-.08h1.08a.27.27,0,0,1,.29.29v5.72a.28.28,0,0,1-.08.2.26.26,0,0,1-.21.09h-1a.31.31,0,0,1-.29-.29V349a2.31,2.31,0,0,1-2,.91A2.19,2.19,0,0,1,71.43,349.2Z"/><path class="cls-1" d="M78.51,349.72a.28.28,0,0,1-.08-.2v-5.71a.33.33,0,0,1,.08-.22.32.32,0,0,1,.21-.08h1a.33.33,0,0,1,.22.08.29.29,0,0,1,.08.22v.5a2.08,2.08,0,0,1,1.75-.8h.51a.27.27,0,0,1,.29.29v.88a.32.32,0,0,1-.08.21.25.25,0,0,1-.21.08h-1a1.22,1.22,0,0,0-.9.33,1.25,1.25,0,0,0-.32.9v3.32a.31.31,0,0,1-.29.29H78.72A.29.29,0,0,1,78.51,349.72Z"/><path class="cls-1" d="M83.59,342.39a.25.25,0,0,1-.09-.2v-.89a.27.27,0,0,1,.09-.21.25.25,0,0,1,.2-.09h1.12a.29.29,0,0,1,.22.09.3.3,0,0,1,.08.21v.89a.25.25,0,0,1-.09.2.29.29,0,0,1-.21.09H83.79A.25.25,0,0,1,83.59,342.39Zm0,7.33a.25.25,0,0,1-.09-.2V343.8a.26.26,0,0,1,.09-.21.28.28,0,0,1,.2-.08h1a.27.27,0,0,1,.29.29v5.72a.28.28,0,0,1-.08.2.29.29,0,0,1-.21.09h-1A.25.25,0,0,1,83.64,349.72Z"/><path class="cls-1" d="M86.89,349.72a.28.28,0,0,1-.08-.2V343.8a.29.29,0,0,1,.08-.21.32.32,0,0,1,.21-.08h1a.3.3,0,0,1,.21.08.29.29,0,0,1,.08.21v.5a2.44,2.44,0,0,1,2-.91,2.28,2.28,0,0,1,1.77.72,2.93,2.93,0,0,1,.65,2v3.41a.24.24,0,0,1-.08.2.26.26,0,0,1-.21.09H91.46a.31.31,0,0,1-.29-.29v-3.33a1.61,1.61,0,0,0-.34-1.1,1.25,1.25,0,0,0-1-.39,1.32,1.32,0,0,0-1,.4,1.52,1.52,0,0,0-.37,1.09v3.33a.28.28,0,0,1-.08.2.26.26,0,0,1-.21.09H87.1A.29.29,0,0,1,86.89,349.72Z"/><path class="cls-1" d="M95.53,352.12a2.34,2.34,0,0,1-.94-.82,1.57,1.57,0,0,1-.28-.79.28.28,0,0,1,.08-.2.32.32,0,0,1,.21-.08h1.08a.28.28,0,0,1,.18.06.31.31,0,0,1,.13.2,1.41,1.41,0,0,0,.4.54,1.33,1.33,0,0,0,.83.22,1.21,1.21,0,0,0,1.4-1.44V349a2.27,2.27,0,0,1-1.85.78,2.34,2.34,0,0,1-1.9-.76,3.39,3.39,0,0,1-.68-2.09v-.65a3.34,3.34,0,0,1,.69-2.08,2.29,2.29,0,0,1,1.89-.79,2.46,2.46,0,0,1,1.12.24,2.23,2.23,0,0,1,.8.65v-.47a.29.29,0,0,1,.09-.22.35.35,0,0,1,.22-.08h1a.32.32,0,0,1,.21.08.33.33,0,0,1,.08.22v5.84a2.78,2.78,0,0,1-.75,2.08,3.06,3.06,0,0,1-2.26.74A3.83,3.83,0,0,1,95.53,352.12ZM98.25,348a1.89,1.89,0,0,0,.37-1.07,3.36,3.36,0,0,0,0-.38,3.47,3.47,0,0,0,0-.39,1.89,1.89,0,0,0-.37-1.07,1.22,1.22,0,0,0-1-.43c-.87,0-1.33.53-1.38,1.6l0,.29c0,1.26.47,1.89,1.4,1.89A1.23,1.23,0,0,0,98.25,348Z"/><path class="cls-1" d="M105.85,352.12a2.34,2.34,0,0,1-.94-.82,1.57,1.57,0,0,1-.28-.79.28.28,0,0,1,.08-.2.32.32,0,0,1,.21-.08H106a.33.33,0,0,1,.19.06.34.34,0,0,1,.12.2,1.41,1.41,0,0,0,.4.54,1.33,1.33,0,0,0,.83.22,1.21,1.21,0,0,0,1.4-1.44V349a2.27,2.27,0,0,1-1.85.78,2.34,2.34,0,0,1-1.9-.76,3.39,3.39,0,0,1-.68-2.09v-.65a3.34,3.34,0,0,1,.69-2.08,2.29,2.29,0,0,1,1.89-.79,2.46,2.46,0,0,1,1.12.24,2.23,2.23,0,0,1,.8.65v-.47a.27.27,0,0,1,.1-.22.32.32,0,0,1,.21-.08h1a.32.32,0,0,1,.21.08.33.33,0,0,1,.08.22v5.84a2.78,2.78,0,0,1-.75,2.08,3.06,3.06,0,0,1-2.26.74A3.83,3.83,0,0,1,105.85,352.12Zm2.72-4.08a1.89,1.89,0,0,0,.37-1.07,3.36,3.36,0,0,0,0-.38,3.47,3.47,0,0,0,0-.39,1.89,1.89,0,0,0-.37-1.07,1.22,1.22,0,0,0-1-.43c-.87,0-1.33.53-1.38,1.6l0,.29c0,1.26.47,1.89,1.4,1.89A1.23,1.23,0,0,0,108.57,348Z"/><path class="cls-1" d="M112.36,349.72a.25.25,0,0,1-.09-.2v-8a.26.26,0,0,1,.09-.21.24.24,0,0,1,.2-.08h1a.27.27,0,0,1,.29.29v8a.24.24,0,0,1-.08.2.26.26,0,0,1-.21.09h-1A.25.25,0,0,1,112.36,349.72Z"/><path class="cls-1" d="M116.12,349.2a2.82,2.82,0,0,1-.83-2v-1.06a2.79,2.79,0,0,1,.85-2,3.64,3.64,0,0,1,4.37,0,2.83,2.83,0,0,1,.85,2c0,.09,0,.27,0,.53s0,.43,0,.53a2.79,2.79,0,0,1-.84,2,3.05,3.05,0,0,1-2.19.73A3.1,3.1,0,0,1,116.12,349.2Zm3.2-.89a1.88,1.88,0,0,0,.37-1.18c0-.08,0-.24,0-.47s0-.39,0-.47a1.94,1.94,0,0,0-.38-1.19,1.41,1.41,0,0,0-2,0,1.88,1.88,0,0,0-.38,1.19v.94a1.83,1.83,0,0,0,.38,1.18,1.43,1.43,0,0,0,2,0Z"/><path class="cls-1" d="M124.34,349.07v.45a.25.25,0,0,1-.09.2.28.28,0,0,1-.22.09h-1a.29.29,0,0,1-.21-.09.25.25,0,0,1-.09-.2v-8a.26.26,0,0,1,.09-.21.28.28,0,0,1,.21-.08h1.05a.25.25,0,0,1,.21.08.29.29,0,0,1,.08.21v2.69a2.28,2.28,0,0,1,1.85-.8,2.31,2.31,0,0,1,1.89.79,3.27,3.27,0,0,1,.69,2.08,3.9,3.9,0,0,1,0,.4c0,.16,0,.29,0,.4a3.32,3.32,0,0,1-.7,2.09,2.61,2.61,0,0,1-3.8-.08Zm2.84-2.05a3.25,3.25,0,0,0,0-.72c-.05-1.07-.51-1.6-1.38-1.6a1.24,1.24,0,0,0-1,.42,1.67,1.67,0,0,0-.38,1c0,.1,0,.25,0,.47s0,.37,0,.46a1.94,1.94,0,0,0,.36,1.09,1.21,1.21,0,0,0,1,.45C126.67,348.62,127.13,348.09,127.18,347Z"/><path class="cls-1" d="M131,349.68a2,2,0,0,1-.82-.67,1.67,1.67,0,0,1,.37-2.27,4,4,0,0,1,1.83-.69l1.66-.24v-.25a1.11,1.11,0,0,0-.26-.79,1.16,1.16,0,0,0-.85-.27,1.19,1.19,0,0,0-.64.15,1.65,1.65,0,0,0-.4.29l-.2.2a.18.18,0,0,1-.18.15h-.94a.25.25,0,0,1-.19-.07.28.28,0,0,1-.08-.2,1.28,1.28,0,0,1,.3-.68,2.28,2.28,0,0,1,.87-.67,3.41,3.41,0,0,1,1.47-.28A2.86,2.86,0,0,1,135,344a2.24,2.24,0,0,1,.66,1.68v3.81a.28.28,0,0,1-.08.2.26.26,0,0,1-.21.09h-1a.31.31,0,0,1-.29-.29v-.47a2,2,0,0,1-.75.63,2.58,2.58,0,0,1-1.21.25A2.5,2.5,0,0,1,131,349.68Zm2.63-1.35a1.74,1.74,0,0,0,.42-1.26v-.24l-1.21.19c-.93.15-1.39.46-1.39.93a.68.68,0,0,0,.32.6,1.29,1.29,0,0,0,.77.22A1.46,1.46,0,0,0,133.58,348.33Z"/><path class="cls-1" d="M137.32,349.72a.28.28,0,0,1-.08-.2v-8a.29.29,0,0,1,.08-.21.28.28,0,0,1,.21-.08h1a.25.25,0,0,1,.21.08.29.29,0,0,1,.08.21v8a.28.28,0,0,1-.08.2.26.26,0,0,1-.21.09h-1A.29.29,0,0,1,137.32,349.72Z"/><path class="cls-1" d="M143.4,352a.29.29,0,0,1-.08-.21v-8a.29.29,0,0,1,.08-.21.32.32,0,0,1,.21-.08h1a.33.33,0,0,1,.22.08.32.32,0,0,1,.08.21v.48a2.23,2.23,0,0,1,1.93-.89,2.32,2.32,0,0,1,1.88.77,3.29,3.29,0,0,1,.7,2.06c0,.1,0,.24,0,.44s0,.34,0,.43a3.27,3.27,0,0,1-.7,2.06,2.33,2.33,0,0,1-1.88.78,2.16,2.16,0,0,1-1.85-.86v2.75a.29.29,0,0,1-.08.21.33.33,0,0,1-.22.08h-1A.32.32,0,0,1,143.4,352Zm4.33-5a6.48,6.48,0,0,0,0-.72c-.06-1.07-.52-1.6-1.38-1.6a1.22,1.22,0,0,0-1,.44,1.83,1.83,0,0,0-.36,1.09c0,.1,0,.25,0,.46s0,.37,0,.48a1.68,1.68,0,0,0,.37,1,1.24,1.24,0,0,0,1,.42C147.21,348.62,147.67,348.09,147.73,347Z"/><path class="cls-1" d="M151.37,349.15a3.06,3.06,0,0,1-.84-2.2v-.3a3.41,3.41,0,0,1,.79-2.39,3.24,3.24,0,0,1,4.42,0,3.37,3.37,0,0,1,.78,2.33v.25a.32.32,0,0,1-.08.21.33.33,0,0,1-.22.08h-4v.1a1.86,1.86,0,0,0,.37,1.12,1.14,1.14,0,0,0,.95.44,1.36,1.36,0,0,0,1.12-.56.73.73,0,0,1,.17-.16.51.51,0,0,1,.21,0h1.07a.28.28,0,0,1,.18.06.19.19,0,0,1,.08.17,1.11,1.11,0,0,1-.34.68,2.84,2.84,0,0,1-1,.69,3.67,3.67,0,0,1-1.49.29A2.94,2.94,0,0,1,151.37,349.15Zm3.47-3v0a1.74,1.74,0,0,0-.36-1.15,1.22,1.22,0,0,0-1-.43,1.2,1.2,0,0,0-1,.43,1.74,1.74,0,0,0-.35,1.15v0Z"/><path class="cls-1" d="M157.93,349.72a.25.25,0,0,1-.09-.2v-5.71a.29.29,0,0,1,.09-.22.3.3,0,0,1,.2-.08h1a.28.28,0,0,1,.3.3v.5a2.07,2.07,0,0,1,1.75-.8h.5a.33.33,0,0,1,.22.08.28.28,0,0,1,.07.21v.88a.31.31,0,0,1-.07.21.29.29,0,0,1-.22.08h-1a1.14,1.14,0,0,0-1.23,1.23v3.32a.24.24,0,0,1-.08.2.29.29,0,0,1-.21.09h-1.08A.27.27,0,0,1,157.93,349.72Z"/><path class="cls-1" d="M163.57,349.19a2.79,2.79,0,0,1-.84-2.05l0-.48,0-.49a2.78,2.78,0,0,1,.84-2,3,3,0,0,1,2.12-.74,3.47,3.47,0,0,1,1.62.34,2.4,2.4,0,0,1,1,.83,1.88,1.88,0,0,1,.35.94.24.24,0,0,1-.08.2.29.29,0,0,1-.21.09h-1.08a.28.28,0,0,1-.2-.06.49.49,0,0,1-.12-.2,1.37,1.37,0,0,0-.48-.66,1.26,1.26,0,0,0-.75-.21,1.24,1.24,0,0,0-1,.39,1.79,1.79,0,0,0-.36,1.18l0,.45,0,.4c0,1.05.49,1.58,1.33,1.58a1.34,1.34,0,0,0,.76-.2,1.46,1.46,0,0,0,.47-.67.53.53,0,0,1,.12-.2.28.28,0,0,1,.2-.06h1.08a.29.29,0,0,1,.21.09.24.24,0,0,1,.08.2,2,2,0,0,1-.34.92,2.71,2.71,0,0,1-1,.84,3.49,3.49,0,0,1-1.64.35A3,3,0,0,1,163.57,349.19Z"/><path class="cls-1" d="M170.52,349.15a3.06,3.06,0,0,1-.84-2.2v-.3a3.41,3.41,0,0,1,.79-2.39,3.24,3.24,0,0,1,4.42,0,3.37,3.37,0,0,1,.78,2.33v.25a.32.32,0,0,1-.08.21.33.33,0,0,1-.22.08h-4v.1a1.86,1.86,0,0,0,.37,1.12,1.15,1.15,0,0,0,.95.44,1.39,1.39,0,0,0,1.13-.56.48.48,0,0,1,.17-.16.46.46,0,0,1,.2,0h1.07a.28.28,0,0,1,.18.06.19.19,0,0,1,.08.17,1.11,1.11,0,0,1-.34.68,2.84,2.84,0,0,1-1,.69,3.63,3.63,0,0,1-1.49.29A2.94,2.94,0,0,1,170.52,349.15Zm3.47-3v0a1.74,1.74,0,0,0-.36-1.15,1.31,1.31,0,0,0-1.94,0,1.79,1.79,0,0,0-.35,1.15v0Z"/><path class="cls-1" d="M177.09,352a.29.29,0,0,1-.08-.21v-8a.29.29,0,0,1,.08-.21.32.32,0,0,1,.21-.08h1a.33.33,0,0,1,.22.08.32.32,0,0,1,.08.21v.48a2.23,2.23,0,0,1,1.93-.89,2.29,2.29,0,0,1,1.87.77,3.29,3.29,0,0,1,.71,2.06c0,.1,0,.24,0,.44s0,.34,0,.43a3.27,3.27,0,0,1-.7,2.06,2.33,2.33,0,0,1-1.88.78,2.19,2.19,0,0,1-1.86-.86v2.75a.25.25,0,0,1-.08.21.29.29,0,0,1-.21.08h-1A.32.32,0,0,1,177.09,352Zm4.33-5c0-.08,0-.2,0-.36s0-.28,0-.36c-.06-1.07-.52-1.6-1.38-1.6a1.22,1.22,0,0,0-1,.44,1.9,1.9,0,0,0-.37,1.09c0,.1,0,.25,0,.46s0,.37,0,.48a1.69,1.69,0,0,0,.38,1,1.24,1.24,0,0,0,1,.42C180.9,348.62,181.36,348.09,181.42,347Z"/><path class="cls-1" d="M185.68,349.23a2.33,2.33,0,0,1-.56-1.69v-2.73h-1a.29.29,0,0,1-.21-.09.26.26,0,0,1-.08-.21v-.71a.28.28,0,0,1,.08-.21.32.32,0,0,1,.21-.08h1v-2a.26.26,0,0,1,.09-.21.24.24,0,0,1,.2-.08h1a.25.25,0,0,1,.21.08.29.29,0,0,1,.08.21v2h1.51a.3.3,0,0,1,.21.08.29.29,0,0,1,.09.21v.71a.31.31,0,0,1-.3.3h-1.51v2.6a1.42,1.42,0,0,0,.18.79.69.69,0,0,0,.6.26h.84a.33.33,0,0,1,.22.08.3.3,0,0,1,.07.21v.77a.27.27,0,0,1-.07.2.29.29,0,0,1-.22.09h-1A2.19,2.19,0,0,1,185.68,349.23Z"/><path class="cls-1" d="M189.79,342.39a.25.25,0,0,1-.09-.2v-.89a.27.27,0,0,1,.09-.21.25.25,0,0,1,.2-.09h1.12a.29.29,0,0,1,.22.09.3.3,0,0,1,.08.21v.89a.25.25,0,0,1-.09.2.29.29,0,0,1-.21.09H190A.25.25,0,0,1,189.79,342.39Zm.05,7.33a.25.25,0,0,1-.09-.2V343.8a.26.26,0,0,1,.09-.21.28.28,0,0,1,.2-.08h1a.27.27,0,0,1,.29.29v5.72a.28.28,0,0,1-.08.2.29.29,0,0,1-.21.09h-1A.25.25,0,0,1,189.84,349.72Z"/><path class="cls-1" d="M193.6,349.2a2.82,2.82,0,0,1-.83-2v-1.06a2.79,2.79,0,0,1,.85-2,3.64,3.64,0,0,1,4.37,0,2.83,2.83,0,0,1,.85,2c0,.09,0,.27,0,.53s0,.43,0,.53a2.79,2.79,0,0,1-.84,2,3.07,3.07,0,0,1-2.19.73A3.1,3.1,0,0,1,193.6,349.2Zm3.2-.89a1.88,1.88,0,0,0,.37-1.18c0-.08,0-.24,0-.47s0-.39,0-.47a1.94,1.94,0,0,0-.38-1.19,1.41,1.41,0,0,0-2,0,1.88,1.88,0,0,0-.38,1.19v.94a1.83,1.83,0,0,0,.38,1.18,1.43,1.43,0,0,0,2,0Z"/><path class="cls-1" d="M200.33,349.72a.25.25,0,0,1-.09-.2V343.8a.26.26,0,0,1,.09-.21.28.28,0,0,1,.2-.08h1a.27.27,0,0,1,.29.29v.5a2.45,2.45,0,0,1,2-.91,2.28,2.28,0,0,1,1.77.72,2.89,2.89,0,0,1,.65,2v3.41a.27.27,0,0,1-.07.2.29.29,0,0,1-.22.09h-1.09a.31.31,0,0,1-.29-.29v-3.33a1.61,1.61,0,0,0-.34-1.1,1.25,1.25,0,0,0-1-.39,1.28,1.28,0,0,0-1,.4,1.52,1.52,0,0,0-.38,1.09v3.33a.28.28,0,0,1-.08.2.26.26,0,0,1-.21.09h-1.08A.25.25,0,0,1,200.33,349.72Z"/><path class="cls-1" d="M208.72,349.65a2.37,2.37,0,0,1-.91-.65,1.08,1.08,0,0,1-.3-.63.28.28,0,0,1,.08-.2.25.25,0,0,1,.19-.07h1a.21.21,0,0,1,.17.1l.27.23a1.57,1.57,0,0,0,.49.28,1.64,1.64,0,0,0,.6.1,1.5,1.5,0,0,0,.78-.18.6.6,0,0,0,.31-.54.61.61,0,0,0-.14-.4,1.27,1.27,0,0,0-.5-.27,9.8,9.8,0,0,0-1.07-.29,3.12,3.12,0,0,1-1.52-.67,1.5,1.5,0,0,1-.49-1.18,1.57,1.57,0,0,1,.29-.92,2.11,2.11,0,0,1,.86-.7,3.27,3.27,0,0,1,1.38-.27,3.43,3.43,0,0,1,1.42.26,2.51,2.51,0,0,1,.9.62,1.1,1.1,0,0,1,.31.64.26.26,0,0,1-.08.19.27.27,0,0,1-.19.08h-.91a.22.22,0,0,1-.2-.1l-.28-.22a1.37,1.37,0,0,0-1-.36,1.07,1.07,0,0,0-.69.2.61.61,0,0,0-.24.5.56.56,0,0,0,.11.37,1,1,0,0,0,.47.27,6.6,6.6,0,0,0,1.05.26c1.45.28,2.18.92,2.18,1.9a1.66,1.66,0,0,1-.74,1.4,3.57,3.57,0,0,1-2.08.53A3.69,3.69,0,0,1,208.72,349.65Z"/><path class="cls-1" d="M41,364.2a2.79,2.79,0,0,1-.84-2v-1.07a2.82,2.82,0,0,1,.85-2,3.65,3.65,0,0,1,4.38,0,2.82,2.82,0,0,1,.84,2c0,.1,0,.28,0,.54s0,.43,0,.53a2.82,2.82,0,0,1-.83,2,3.68,3.68,0,0,1-4.4,0Zm3.19-.9a1.78,1.78,0,0,0,.37-1.17c0-.08,0-.24,0-.47s0-.39,0-.47a1.86,1.86,0,0,0-.37-1.19,1.23,1.23,0,0,0-1-.4,1.26,1.26,0,0,0-1,.4,1.86,1.86,0,0,0-.37,1.19l0,.47,0,.47a1.78,1.78,0,0,0,.37,1.17,1.26,1.26,0,0,0,1,.4A1.22,1.22,0,0,0,44.21,363.3Z"/><path class="cls-1" d="M48.42,364.72a.28.28,0,0,1-.08-.2V359.8h-1a.27.27,0,0,1-.29-.29v-.71a.28.28,0,0,1,.08-.21.32.32,0,0,1,.21-.08h1V358a2.1,2.1,0,0,1,.59-1.64,2.59,2.59,0,0,1,1.79-.54h.84a.29.29,0,0,1,.21.09.28.28,0,0,1,.08.2v.72a.28.28,0,0,1-.08.2.29.29,0,0,1-.21.09h-.78a.84.84,0,0,0-.66.23,1.07,1.07,0,0,0-.2.71v.43h1.52a.28.28,0,0,1,.2.08.29.29,0,0,1,.09.21v.71a.29.29,0,0,1-.09.21.24.24,0,0,1-.2.08H49.92v4.72a.27.27,0,0,1-.07.2.29.29,0,0,1-.22.09h-1A.29.29,0,0,1,48.42,364.72Z"/><path class="cls-1" d="M55.64,364.72a.24.24,0,0,1-.08-.2v-8a.29.29,0,0,1,.08-.22.31.31,0,0,1,.21-.07h1a.32.32,0,0,1,.22.07.33.33,0,0,1,.08.22v8a.28.28,0,0,1-.08.2.29.29,0,0,1-.22.09h-1A.29.29,0,0,1,55.64,364.72Z"/><path class="cls-1" d="M59.51,364.68a2.15,2.15,0,0,1-.81-.67,1.64,1.64,0,0,1,.37-2.27,3.94,3.94,0,0,1,1.83-.69l1.66-.24v-.25a1.07,1.07,0,0,0-.27-.79,1.16,1.16,0,0,0-.85-.27,1.21,1.21,0,0,0-.64.15,1.8,1.8,0,0,0-.39.29l-.2.2a.18.18,0,0,1-.18.15h-1a.34.34,0,0,1-.19-.07.27.27,0,0,1-.07-.2,1.19,1.19,0,0,1,.29-.68,2.25,2.25,0,0,1,.88-.67,3.38,3.38,0,0,1,1.47-.28,2.88,2.88,0,0,1,2.08.64,2.24,2.24,0,0,1,.65,1.68v3.81a.24.24,0,0,1-.08.2.26.26,0,0,1-.21.09h-1a.29.29,0,0,1-.21-.09.24.24,0,0,1-.08-.2V364a2.06,2.06,0,0,1-.75.64,2.63,2.63,0,0,1-1.22.25A2.53,2.53,0,0,1,59.51,364.68Zm2.64-1.35a1.74,1.74,0,0,0,.42-1.26v-.24l-1.21.19c-.93.15-1.39.46-1.39.93a.66.66,0,0,0,.32.6,1.37,1.37,0,0,0,.77.22A1.48,1.48,0,0,0,62.15,363.33Z"/><path class="cls-1" d="M65.88,364.72a.25.25,0,0,1-.09-.2V358.8a.26.26,0,0,1,.09-.21.24.24,0,0,1,.2-.08h1a.25.25,0,0,1,.21.08.29.29,0,0,1,.08.21v.5a2.45,2.45,0,0,1,2-.91,2.27,2.27,0,0,1,1.77.72,2.87,2.87,0,0,1,.66,2v3.41a.28.28,0,0,1-.08.2.29.29,0,0,1-.22.09H70.44a.31.31,0,0,1-.29-.29v-3.33a1.61,1.61,0,0,0-.34-1.1,1.25,1.25,0,0,0-1-.39,1.31,1.31,0,0,0-1,.39,1.55,1.55,0,0,0-.38,1.1v3.33a.24.24,0,0,1-.08.2.26.26,0,0,1-.21.09H66.08A.25.25,0,0,1,65.88,364.72Z"/><path class="cls-1" d="M73.87,364.15a3.45,3.45,0,0,1-.71-2.09v-.8a3.34,3.34,0,0,1,.71-2.08,2.58,2.58,0,0,1,3.73,0V356.5a.29.29,0,0,1,.09-.22.27.27,0,0,1,.2-.07H79a.28.28,0,0,1,.21.07.33.33,0,0,1,.08.22v8a.28.28,0,0,1-.08.2.26.26,0,0,1-.21.09H78a.29.29,0,0,1-.21-.09.24.24,0,0,1-.08-.2v-.45a2.62,2.62,0,0,1-3.81.08Zm3.36-1a1.89,1.89,0,0,0,.37-1.1c0-.1,0-.25,0-.46s0-.37,0-.47a1.64,1.64,0,0,0-.37-1,1.27,1.27,0,0,0-1-.42q-1.29,0-1.38,1.59V362c.06,1.07.52,1.6,1.38,1.6A1.2,1.2,0,0,0,77.23,363.18Z"/><path class="cls-1" d="M84.41,364.68a2.11,2.11,0,0,1-.82-.67,1.68,1.68,0,0,1-.29-.94,1.61,1.61,0,0,1,.66-1.33,4,4,0,0,1,1.83-.69l1.66-.24v-.25a1.11,1.11,0,0,0-.26-.79,1.16,1.16,0,0,0-.85-.27,1.19,1.19,0,0,0-.64.15,1.65,1.65,0,0,0-.4.29l-.2.2a.18.18,0,0,1-.18.15H84a.29.29,0,0,1-.19-.07.24.24,0,0,1-.08-.2,1.28,1.28,0,0,1,.3-.68,2.28,2.28,0,0,1,.87-.67,3.41,3.41,0,0,1,1.47-.28,2.86,2.86,0,0,1,2.08.64,2.24,2.24,0,0,1,.66,1.68v3.81a.28.28,0,0,1-.08.2.26.26,0,0,1-.21.09h-1a.31.31,0,0,1-.29-.29V364a2.06,2.06,0,0,1-.75.64,2.58,2.58,0,0,1-1.21.25A2.5,2.5,0,0,1,84.41,364.68ZM87,363.33a1.74,1.74,0,0,0,.42-1.26v-.24l-1.21.19c-.93.15-1.39.46-1.39.93a.68.68,0,0,0,.32.6,1.37,1.37,0,0,0,.77.22A1.46,1.46,0,0,0,87,363.33Z"/><path class="cls-1" d="M90.77,364.72a.24.24,0,0,1-.08-.2V358.8a.25.25,0,0,1,.08-.21.28.28,0,0,1,.21-.08h1a.27.27,0,0,1,.29.29v.5a2.47,2.47,0,0,1,2-.91,2.25,2.25,0,0,1,1.76.72,2.87,2.87,0,0,1,.66,2v3.41a.28.28,0,0,1-.08.2.26.26,0,0,1-.21.09H95.34a.29.29,0,0,1-.21-.09.28.28,0,0,1-.08-.2v-3.33a1.61,1.61,0,0,0-.35-1.1,1.25,1.25,0,0,0-1-.39,1.31,1.31,0,0,0-1,.39,1.54,1.54,0,0,0-.37,1.1v3.33a.28.28,0,0,1-.08.2.29.29,0,0,1-.21.09H91A.29.29,0,0,1,90.77,364.72Z"/><path class="cls-1" d="M98.77,364.15a3.39,3.39,0,0,1-.72-2.09v-.8a3.34,3.34,0,0,1,.71-2.08,2.6,2.6,0,0,1,3.74,0V356.5a.33.33,0,0,1,.08-.22.31.31,0,0,1,.21-.07h1a.28.28,0,0,1,.21.07.29.29,0,0,1,.08.22v8a.24.24,0,0,1-.08.2.26.26,0,0,1-.21.09h-1a.29.29,0,0,1-.21-.09.28.28,0,0,1-.08-.2v-.45a2.61,2.61,0,0,1-3.8.08Zm3.36-1a2,2,0,0,0,.37-1.1c0-.1,0-.25,0-.46s0-.37,0-.47a1.64,1.64,0,0,0-.38-1,1.24,1.24,0,0,0-1-.42q-1.29,0-1.38,1.59V362c.06,1.07.52,1.6,1.38,1.6A1.22,1.22,0,0,0,102.13,363.18Z"/><path class="cls-1" d="M108.7,367a.26.26,0,0,1-.09-.21v-8a.26.26,0,0,1,.09-.21.26.26,0,0,1,.21-.08h1a.31.31,0,0,1,.22.08.29.29,0,0,1,.09.21v.48a2.23,2.23,0,0,1,1.92-.89,2.31,2.31,0,0,1,1.88.77,3.23,3.23,0,0,1,.7,2.06,4.33,4.33,0,0,1,0,.44,4.1,4.1,0,0,1,0,.43,3.21,3.21,0,0,1-.69,2.06,2.34,2.34,0,0,1-1.89.78,2.19,2.19,0,0,1-1.85-.86v2.75a.27.27,0,0,1-.29.29h-1A.3.3,0,0,1,108.7,367Zm4.32-5a2.93,2.93,0,0,0,0-.36,3.12,3.12,0,0,0,0-.37q-.08-1.59-1.38-1.59a1.21,1.21,0,0,0-1,.44,2,2,0,0,0-.36,1.09c0,.1,0,.25,0,.46s0,.37,0,.48a1.69,1.69,0,0,0,.38,1,1.24,1.24,0,0,0,1,.42C112.51,363.62,113,363.09,113,362Z"/><path class="cls-1" d="M116.17,364.72a.28.28,0,0,1-.08-.2v-5.71a.33.33,0,0,1,.08-.22.32.32,0,0,1,.21-.08h1a.33.33,0,0,1,.22.08.29.29,0,0,1,.09.22v.5a2,2,0,0,1,1.74-.8h.51a.25.25,0,0,1,.21.08.29.29,0,0,1,.08.21v.88a.32.32,0,0,1-.08.21.25.25,0,0,1-.21.08h-1a1.22,1.22,0,0,0-.9.33,1.25,1.25,0,0,0-.32.9v3.32a.31.31,0,0,1-.29.29h-1.08A.29.29,0,0,1,116.17,364.72Z"/><path class="cls-1" d="M121.81,364.2a2.79,2.79,0,0,1-.84-2v-1.07a2.78,2.78,0,0,1,.85-2,3.64,3.64,0,0,1,4.37,0,2.78,2.78,0,0,1,.85,2c0,.1,0,.28,0,.54s0,.43,0,.53a2.79,2.79,0,0,1-.84,2,3.67,3.67,0,0,1-4.39,0Zm3.19-.9a1.83,1.83,0,0,0,.37-1.17c0-.08,0-.24,0-.47s0-.39,0-.47A1.86,1.86,0,0,0,125,360a1.41,1.41,0,0,0-2,0,1.86,1.86,0,0,0-.38,1.19v.94a1.78,1.78,0,0,0,.38,1.17,1.43,1.43,0,0,0,2,0Z"/><path class="cls-1" d="M128.54,367a.25.25,0,0,1-.08-.21v-8a.25.25,0,0,1,.08-.21.28.28,0,0,1,.21-.08h1a.29.29,0,0,1,.3.29v.48a2.23,2.23,0,0,1,1.93-.89,2.29,2.29,0,0,1,1.87.77,3.29,3.29,0,0,1,.71,2.06c0,.1,0,.24,0,.44s0,.34,0,.43a3.27,3.27,0,0,1-.7,2.06,2.33,2.33,0,0,1-1.88.78,2.19,2.19,0,0,1-1.86-.86v2.75a.25.25,0,0,1-.08.21.29.29,0,0,1-.21.08h-1.05A.32.32,0,0,1,128.54,367Zm4.33-5c0-.08,0-.2,0-.36s0-.29,0-.37q-.09-1.59-1.38-1.59a1.18,1.18,0,0,0-1,.44,1.9,1.9,0,0,0-.37,1.09c0,.1,0,.25,0,.46s0,.37,0,.48a1.69,1.69,0,0,0,.38,1,1.24,1.24,0,0,0,1,.42C132.35,363.62,132.81,363.09,132.87,362Z"/><path class="cls-1" d="M136.51,364.15a3.11,3.11,0,0,1-.85-2.2v-.3a3.42,3.42,0,0,1,.8-2.39,2.8,2.8,0,0,1,2.19-.87,2.83,2.83,0,0,1,2.23.87,3.36,3.36,0,0,1,.78,2.32v.26a.29.29,0,0,1-.09.21.3.3,0,0,1-.21.08h-4v.1a1.92,1.92,0,0,0,.37,1.12,1.15,1.15,0,0,0,.95.44,1.38,1.38,0,0,0,1.13-.56.57.57,0,0,1,.17-.16.51.51,0,0,1,.21,0h1.06a.31.31,0,0,1,.19.06.21.21,0,0,1,.08.17,1.13,1.13,0,0,1-.35.68,2.89,2.89,0,0,1-1,.69,3.67,3.67,0,0,1-1.49.29A2.91,2.91,0,0,1,136.51,364.15Zm3.47-3v0a1.74,1.74,0,0,0-.36-1.15,1.32,1.32,0,0,0-2,0,1.79,1.79,0,0,0-.35,1.15v0Z"/><path class="cls-1" d="M143.07,364.72a.25.25,0,0,1-.09-.2v-5.71a.29.29,0,0,1,.09-.22.28.28,0,0,1,.2-.08h1a.31.31,0,0,1,.22.08.29.29,0,0,1,.09.22v.5a2,2,0,0,1,1.74-.8h.51a.27.27,0,0,1,.29.29v.88a.28.28,0,0,1-.08.21.25.25,0,0,1-.21.08h-1a1.19,1.19,0,0,0-.89.33,1.22,1.22,0,0,0-.33.9v3.32a.28.28,0,0,1-.08.2.29.29,0,0,1-.21.09h-1.08A.25.25,0,0,1,143.07,364.72Z"/><path class="cls-1" d="M149.3,364.23a2.34,2.34,0,0,1-.55-1.69V359.8h-1a.28.28,0,0,1-.21-.08.32.32,0,0,1-.08-.21v-.71a.27.27,0,0,1,.29-.29h1v-2a.29.29,0,0,1,.08-.22.31.31,0,0,1,.21-.07h1a.28.28,0,0,1,.21.07.29.29,0,0,1,.08.22v2h1.52a.28.28,0,0,1,.2.08.29.29,0,0,1,.09.21v.71a.29.29,0,0,1-.09.21.24.24,0,0,1-.2.08h-1.52v2.61a1.34,1.34,0,0,0,.19.79.67.67,0,0,0,.59.26H152a.27.27,0,0,1,.29.29v.77a.28.28,0,0,1-.08.2.26.26,0,0,1-.21.09h-1A2.21,2.21,0,0,1,149.3,364.23Z"/><path class="cls-1" d="M154.34,367a.21.21,0,0,1-.08-.17.42.42,0,0,1,.05-.2l.95-2.24-2.32-5.49a.45.45,0,0,1-.05-.17.37.37,0,0,1,.08-.18.22.22,0,0,1,.19-.08h1a.33.33,0,0,1,.32.23l1.61,3.95,1.63-3.95a.37.37,0,0,1,.34-.23h1a.21.21,0,0,1,.18.07.25.25,0,0,1,.08.17.49.49,0,0,1-.05.19l-3.43,7.94a.35.35,0,0,1-.34.23h-1A.28.28,0,0,1,154.34,367Z"/><path class="cls-1" d="M163.28,364.72a.28.28,0,0,1-.08-.2v-5.71a.33.33,0,0,1,.08-.22.32.32,0,0,1,.21-.08h1a.33.33,0,0,1,.22.08.29.29,0,0,1,.09.22v.5a2,2,0,0,1,1.74-.8H167a.25.25,0,0,1,.21.08.29.29,0,0,1,.08.21v.88a.32.32,0,0,1-.08.21.25.25,0,0,1-.21.08h-1a1.18,1.18,0,0,0-.89.33,1.22,1.22,0,0,0-.33.9v3.32a.31.31,0,0,1-.29.29h-1.08A.29.29,0,0,1,163.28,364.72Z"/><path class="cls-1" d="M168.36,357.39a.25.25,0,0,1-.09-.2v-.89a.26.26,0,0,1,.09-.21.25.25,0,0,1,.2-.09h1.12a.29.29,0,0,1,.22.09.29.29,0,0,1,.08.21v.89a.25.25,0,0,1-.09.2.29.29,0,0,1-.21.09h-1.12A.25.25,0,0,1,168.36,357.39Zm0,7.33a.25.25,0,0,1-.09-.2V358.8a.26.26,0,0,1,.09-.21.24.24,0,0,1,.2-.08h1a.27.27,0,0,1,.29.29v5.72a.28.28,0,0,1-.08.2.29.29,0,0,1-.21.09h-1A.25.25,0,0,1,168.41,364.72Z"/><path class="cls-1" d="M172.68,367.11a2.33,2.33,0,0,1-.94-.81,1.57,1.57,0,0,1-.28-.79.28.28,0,0,1,.08-.2.32.32,0,0,1,.21-.08h1.08a.33.33,0,0,1,.19.06.34.34,0,0,1,.12.2,1.41,1.41,0,0,0,.4.53,1.28,1.28,0,0,0,.83.23,1.21,1.21,0,0,0,1.4-1.44V364a2.27,2.27,0,0,1-1.85.78A2.37,2.37,0,0,1,172,364a3.39,3.39,0,0,1-.68-2.09v-.65a3.4,3.4,0,0,1,.69-2.09,2.31,2.31,0,0,1,1.89-.78,2.54,2.54,0,0,1,1.13.24,2.28,2.28,0,0,1,.79.65v-.47a.27.27,0,0,1,.1-.22.32.32,0,0,1,.21-.08h1a.32.32,0,0,1,.21.08.33.33,0,0,1,.08.22v5.84a2.78,2.78,0,0,1-.75,2.08,3.06,3.06,0,0,1-2.26.74A3.7,3.7,0,0,1,172.68,367.11ZM175.4,363a1.89,1.89,0,0,0,.37-1.07,3.47,3.47,0,0,0,0-.39,3.36,3.36,0,0,0,0-.38,1.89,1.89,0,0,0-.37-1.07,1.22,1.22,0,0,0-1-.43q-1.31,0-1.38,1.59v.29c0,1.26.46,1.89,1.39,1.89A1.22,1.22,0,0,0,175.4,363Z"/><path class="cls-1" d="M179.19,364.72a.25.25,0,0,1-.09-.2v-8a.29.29,0,0,1,.09-.22.27.27,0,0,1,.2-.07h1.11a.28.28,0,0,1,.21.07.33.33,0,0,1,.08.22v2.76a2.4,2.4,0,0,1,2-.87,2.29,2.29,0,0,1,1.78.73,2.86,2.86,0,0,1,.66,2v3.41a.27.27,0,0,1-.07.2.29.29,0,0,1-.22.09h-1.1a.29.29,0,0,1-.22-.09.28.28,0,0,1-.08-.2v-3.33a1.61,1.61,0,0,0-.35-1.1,1.24,1.24,0,0,0-1-.39,1.32,1.32,0,0,0-1,.39,1.54,1.54,0,0,0-.37,1.1v3.33a.28.28,0,0,1-.08.2.26.26,0,0,1-.21.09h-1.11A.25.25,0,0,1,179.19,364.72Z"/><path class="cls-1" d="M188,364.23a2.34,2.34,0,0,1-.56-1.69V359.8h-.95a.27.27,0,0,1-.29-.29v-.71a.28.28,0,0,1,.08-.21.32.32,0,0,1,.21-.08h.95v-2a.29.29,0,0,1,.09-.22.27.27,0,0,1,.2-.07h1a.28.28,0,0,1,.21.07.33.33,0,0,1,.08.22v2h1.51a.3.3,0,0,1,.21.08.29.29,0,0,1,.09.21v.71a.29.29,0,0,1-.09.21.26.26,0,0,1-.21.08H189v2.61a1.42,1.42,0,0,0,.18.79.69.69,0,0,0,.6.26h.84a.33.33,0,0,1,.22.08.28.28,0,0,1,.07.21v.77a.27.27,0,0,1-.07.2.29.29,0,0,1-.22.09h-1A2.19,2.19,0,0,1,188,364.23Z"/><path class="cls-1" d="M192.9,364.65A2.37,2.37,0,0,1,192,364a1.08,1.08,0,0,1-.3-.63.26.26,0,0,1,.08-.2.25.25,0,0,1,.19-.07h1a.21.21,0,0,1,.17.1,3.39,3.39,0,0,1,.27.23,1.57,1.57,0,0,0,.49.28,1.64,1.64,0,0,0,.6.1,1.5,1.5,0,0,0,.78-.18.6.6,0,0,0,.31-.54.59.59,0,0,0-.14-.4,1.4,1.4,0,0,0-.5-.28,10.25,10.25,0,0,0-1.07-.28,3.26,3.26,0,0,1-1.52-.67,1.5,1.5,0,0,1-.49-1.18,1.57,1.57,0,0,1,.29-.92,2.11,2.11,0,0,1,.86-.7,3.27,3.27,0,0,1,1.38-.27,3.43,3.43,0,0,1,1.42.26,2.51,2.51,0,0,1,.9.62,1.1,1.1,0,0,1,.31.64.26.26,0,0,1-.08.19.27.27,0,0,1-.19.08h-.91a.22.22,0,0,1-.2-.1l-.28-.22a1.37,1.37,0,0,0-1-.36,1.07,1.07,0,0,0-.69.2.59.59,0,0,0-.24.5.56.56,0,0,0,.11.37,1.2,1.2,0,0,0,.47.27,7.92,7.92,0,0,0,1.05.26c1.46.28,2.18.92,2.18,1.9a1.66,1.66,0,0,1-.74,1.4,3.57,3.57,0,0,1-2.08.53A3.69,3.69,0,0,1,192.9,364.65Z"/><rect class="cls-2" x="0.28" y="0.17" width="283.18" height="404.08"/><path class="cls-3" d="M242.71,102.81l-99.21-64a2.72,2.72,0,0,0-2.93,0l-99.21,64a3.38,3.38,0,0,0-1.55,2.85v63.59A2.7,2.7,0,0,0,42.5,172H66.34a2.69,2.69,0,0,1,2.69,2.7v48.18a2.7,2.7,0,0,0,2.7,2.7H95.56a2.7,2.7,0,0,0,2.7-2.7V155.77a2.69,2.69,0,0,1,2.69-2.7h23.83a2.7,2.7,0,0,1,2.7,2.7v48.31a2.7,2.7,0,0,0,2.7,2.7H154a2.7,2.7,0,0,1,2.7,2.7v48.7a2.15,2.15,0,0,0,2.15,2.16h24.91a2.16,2.16,0,0,0,2.16-2.16v-48.6a2.69,2.69,0,0,1,2.69-2.7h23.84a2.68,2.68,0,0,0,2.69-2.69V128.1a2.7,2.7,0,0,1,2.7-2.7h23.71a2.7,2.7,0,0,0,2.7-2.7v-17A3.4,3.4,0,0,0,242.71,102.81Z"/><path class="cls-1" d="M41.21,328.92a1.33,1.33,0,0,1-.42-1V291.65a1.45,1.45,0,0,1,.39-1,1.32,1.32,0,0,1,1-.42H58q7.27,0,11.41,3.3t4.14,9.67q0,6.38-4.14,9.54T58,315.87H51.64v12.07a1.38,1.38,0,0,1-.39,1,1.32,1.32,0,0,1-1,.42H42.19A1.35,1.35,0,0,1,41.21,328.92Zm16.52-21.05a5.16,5.16,0,0,0,3.61-1.2,4.56,4.56,0,0,0,1.31-3.55,5.1,5.1,0,0,0-1.2-3.53,4.76,4.76,0,0,0-3.72-1.34H51.47v9.62Z"/><path class="cls-1" d="M76.55,328.92a1.33,1.33,0,0,1-.42-1V301.72a1.48,1.48,0,0,1,.39-1,1.32,1.32,0,0,1,1-.42h6.82a1.38,1.38,0,0,1,1,.42,1.42,1.42,0,0,1,.42,1v2.12a10.75,10.75,0,0,1,3.67-2.65,11.35,11.35,0,0,1,4.67-.93h2.51a1.38,1.38,0,0,1,1,.4,1.35,1.35,0,0,1,.39,1v6.1a1.4,1.4,0,0,1-.39,1,1.32,1.32,0,0,1-1,.42H91a4.57,4.57,0,0,0-3.43,1.23,4.7,4.7,0,0,0-1.21,3.46v14.09a1.32,1.32,0,0,1-.42,1,1.45,1.45,0,0,1-1,.39H77.53A1.35,1.35,0,0,1,76.55,328.92Z"/><path class="cls-1" d="M101.41,295.82a1.43,1.43,0,0,1-.4-1v-5.2a1.4,1.4,0,0,1,.42-1,1.35,1.35,0,0,1,1-.42h7a1.42,1.42,0,0,1,1,.42,1.39,1.39,0,0,1,.41,1v5.2a1.39,1.39,0,0,1-.41,1,1.42,1.42,0,0,1-1,.42h-7A1.3,1.3,0,0,1,101.41,295.82Zm0,33.1a1.33,1.33,0,0,1-.42-1V301.66a1.3,1.3,0,0,1,.42-1,1.41,1.41,0,0,1,1-.4h7a1.48,1.48,0,0,1,1,.4,1.29,1.29,0,0,1,.41,1v26.28a1.31,1.31,0,0,1-.41,1,1.48,1.48,0,0,1-1,.39h-7A1.35,1.35,0,0,1,101.43,328.92Z"/><path class="cls-1" d="M115.8,328.92a1.33,1.33,0,0,1-.42-1V301.66a1.3,1.3,0,0,1,.42-1,1.41,1.41,0,0,1,1-.4h6.88a1.4,1.4,0,0,1,1,.4,1.35,1.35,0,0,1,.39,1v2.13a11,11,0,0,1,3.88-3,12.8,12.8,0,0,1,5.46-1.11,11,11,0,0,1,5.67,1.45,10,10,0,0,1,3.92,4.31,15.22,15.22,0,0,1,1.42,6.87v15.6a1.38,1.38,0,0,1-.39,1,1.32,1.32,0,0,1-1,.42h-7.43a1.48,1.48,0,0,1-1-.39,1.32,1.32,0,0,1-.42-1V312.68a5.6,5.6,0,0,0-1.2-3.86,4.46,4.46,0,0,0-3.49-1.34,4.62,4.62,0,0,0-3.53,1.37,5.4,5.4,0,0,0-1.28,3.83v15.26a1.38,1.38,0,0,1-.39,1,1.34,1.34,0,0,1-1,.42h-7.44A1.35,1.35,0,0,1,115.8,328.92Z"/><path class="cls-1" d="M152.32,326.49q-3.1-3.4-3.33-9.73l-.06-2,.06-2q.22-6.09,3.36-9.59a10.82,10.82,0,0,1,8.49-3.49A10.66,10.66,0,0,1,169,303V291a1.32,1.32,0,0,1,.42-1,1.4,1.4,0,0,1,1-.39h7.21a1.48,1.48,0,0,1,1,.39,1.32,1.32,0,0,1,.42,1v36.9a1.32,1.32,0,0,1-.42,1,1.48,1.48,0,0,1-1,.39h-6.65a1.35,1.35,0,0,1-1-.42,1.33,1.33,0,0,1-.42-1v-1.73q-3,3.69-8.67,3.69A11,11,0,0,1,152.32,326.49Zm15.35-5.9A6.74,6.74,0,0,0,169,316.7c.08-1,.11-1.75.11-2.12s0-1.1-.11-2.07a5.89,5.89,0,0,0-1.31-3.61,4.39,4.39,0,0,0-3.55-1.42,4.18,4.18,0,0,0-3.61,1.48,7.73,7.73,0,0,0-1.26,4.11l-.05,1.73.05,1.74a7.73,7.73,0,0,0,1.26,4.11,5,5,0,0,0,7.19-.06Z"/><path class="cls-1" d="M187,326.24q-3.91-3.66-4-10.65v-1.74q.22-6.64,4.14-10.4c2.6-2.5,6.13-3.74,10.56-3.74a16,16,0,0,1,8.14,1.92,12.23,12.23,0,0,1,5,5.32,17.31,17.31,0,0,1,1.65,7.69V316a1.43,1.43,0,0,1-1.46,1.46H193.28v.33a7,7,0,0,0,1.17,4.06,3.72,3.72,0,0,0,3.19,1.53,3.83,3.83,0,0,0,2.15-.53,7.47,7.47,0,0,0,1.54-1.37,3,3,0,0,1,.81-.7,2.57,2.57,0,0,1,1-.14h7.32a1.32,1.32,0,0,1,.87.31,1,1,0,0,1,.36.76,5.71,5.71,0,0,1-1.65,3.41,13.13,13.13,0,0,1-4.8,3.35,18.41,18.41,0,0,1-7.47,1.4Q190.93,329.9,187,326.24Zm15.16-14.46v-.11a6.48,6.48,0,0,0-1.18-4.16,4,4,0,0,0-3.3-1.49,3.91,3.91,0,0,0-3.27,1.49,6.66,6.66,0,0,0-1.14,4.16v.11Z"/><path class="cls-1" d="M213,329a1.2,1.2,0,0,1-.39-.92,1.28,1.28,0,0,1,.33-.84l9.29-12.81-8.45-12a1.45,1.45,0,0,1-.33-.84,1.2,1.2,0,0,1,.39-.92,1.29,1.29,0,0,1,.89-.37h7.22a1.57,1.57,0,0,1,1,.28,4,4,0,0,1,.67.73l4.92,6.88,5-6.88.28-.33a1.88,1.88,0,0,1,.59-.48,1.68,1.68,0,0,1,.81-.2H242a1.29,1.29,0,0,1,.89.37,1.14,1.14,0,0,1,.39.86,1.52,1.52,0,0,1-.33.9l-8.61,12,9.45,12.81a1.46,1.46,0,0,1,.28.84,1.25,1.25,0,0,1-1.29,1.28h-7.55a1.86,1.86,0,0,1-1.57-.89l-5.42-7.38-5.48,7.38a2.82,2.82,0,0,1-.67.67,1.69,1.69,0,0,1-.95.22h-7.33A1.28,1.28,0,0,1,213,329Z"/></svg>